<?xml version="1.0" encoding="UTF-8"?>
<svg version="1.1" xmlns="http://www.w3.org/2000/svg" width="1016" height="704">
<path d="M0 0 C0 1.98 0 3.96 0 6 C-1.1859375 6.15855469 -2.371875 6.31710938 -3.59375 6.48046875 C-17.6789826 8.46902382 -31.22247716 11.52250578 -44 18 C-45.4540625 18.71929687 -45.4540625 18.71929687 -46.9375 19.453125 C-60.9916547 26.6829065 -73.83243956 35.8530989 -84 48 C-84.6909375 48.80308594 -85.381875 49.60617188 -86.09375 50.43359375 C-96.84434904 63.17153944 -105.30471854 77.25847071 -113 92 C-113.46132324 92.87785156 -113.92264648 93.75570312 -114.39794922 94.66015625 C-123.73701838 112.64885432 -130.48242232 131.33717049 -137.10968018 150.44049072 C-138.70637097 155.03068942 -140.32127104 159.61449285 -141.93359375 164.19921875 C-145.30502506 173.79393562 -148.65792185 183.39502318 -152 193 C-151.27296875 192.98694824 -150.5459375 192.97389648 -149.796875 192.96044922 C-113.28033471 192.59177261 -75.25528566 201.95840349 -43 219 C-41.89140625 219.55042969 -40.7828125 220.10085937 -39.640625 220.66796875 C-36.82566397 222.27822188 -35.05950765 223.50154902 -33 226 C-32.40283203 229.20996094 -32.40283203 229.20996094 -32.2578125 232.734375 C-32.17104248 234.49346191 -32.17104248 234.49346191 -32.08251953 236.28808594 C-32.05528809 237.18301758 -32.02805664 238.07794922 -32 239 C-64.27182177 240.96392511 -64.27182177 240.96392511 -76.33984375 230.33398438 C-79.27113834 227.97860296 -82.56656022 226.38405287 -85.9375 224.75 C-86.60257568 224.42612305 -87.26765137 224.10224609 -87.95288086 223.76855469 C-110.51297893 213.04833335 -133.22933912 209.25170893 -158 208 C-158.24492188 209.24652344 -158.48984375 210.49304688 -158.7421875 211.77734375 C-160.02802112 217.56359504 -162.04953138 223.02052156 -164.125 228.5625 C-165.40375 232.006875 -166.6825 235.45125 -168 239 C-176.91 239 -185.82 239 -195 239 C-192.76195503 229.97064617 -190.50562178 220.95949608 -188 212 C-207.0803917 217.20912452 -226.8743916 223.92242881 -241.75640869 237.61616516 C-244.90381855 239.55747034 -247.2898199 239.36016053 -250.97167969 239.34057617 C-252.01131111 239.34123329 -252.01131111 239.34123329 -253.07194519 239.34190369 C-255.35554488 239.33981897 -257.63840408 239.31650401 -259.921875 239.29296875 C-261.50799153 239.28737164 -263.09411325 239.28310208 -264.68023682 239.28010559 C-268.84949123 239.2686658 -273.01843079 239.23920626 -277.18756104 239.20599365 C-281.44400778 239.175274 -285.70050554 239.16159621 -289.95703125 239.14648438 C-298.30483179 239.11433555 -306.6523767 239.06314989 -315 239 C-317.86756842 232.7776276 -320.37266474 226.49138602 -322.671875 220.0390625 C-322.99915588 219.12667816 -323.32643677 218.21429382 -323.66363525 217.27426147 C-324.34765622 215.36396788 -325.02990751 213.45303975 -325.71044922 211.54150391 C-326.7553145 208.61008994 -327.80899256 205.68194236 -328.86328125 202.75390625 C-329.52917814 200.89081517 -330.19456131 199.02754038 -330.859375 197.1640625 C-331.17493347 196.28908112 -331.49049194 195.41409973 -331.81561279 194.51260376 C-332.10301331 193.701008 -332.39041382 192.88941223 -332.68652344 192.05322266 C-332.94093201 191.34090485 -333.19534058 190.62858704 -333.4574585 189.89468384 C-334 188 -334 188 -334 185 C-334.66 185 -335.32 185 -336 185 C-336.09531006 185.9288501 -336.19062012 186.8577002 -336.28881836 187.81469727 C-337.04072931 193.04011433 -338.74901736 197.95858036 -340.37890625 202.96484375 C-340.71043198 203.99815323 -341.0419577 205.03146271 -341.38352966 206.09608459 C-342.43791618 209.37828001 -343.50008606 212.65789527 -344.5625 215.9375 C-345.28111509 218.16975579 -345.99921969 220.40217598 -346.71679688 222.63476562 C-348.4710116 228.09209721 -350.23573978 233.54586702 -352 239 C-359.26 239 -366.52 239 -374 239 C-372.78249056 233.5212075 -371.63381281 228.51925925 -369.91552734 223.25415039 C-369.71630362 222.63971258 -369.51707989 222.02527477 -369.31181908 221.39221764 C-368.6570794 219.37607503 -367.99650834 217.36189504 -367.3359375 215.34765625 C-366.865917 213.90369827 -366.39630193 212.45960827 -365.92706299 211.01539612 C-364.93053599 207.9507617 -363.93154991 204.88694527 -362.93048096 201.8237915 C-360.57836393 194.62655076 -358.23729407 187.42571439 -355.89544296 180.22512817 C-355.10855058 177.80605931 -354.3211403 175.38715941 -353.53372192 172.96826172 C-350.31066051 163.06238294 -347.11579925 153.14797624 -343.953125 143.22265625 C-343.38877243 141.45206596 -343.38877243 141.45206596 -342.8130188 139.64570618 C-341.07449091 134.18716862 -339.34061649 128.7271856 -337.61083984 123.26586914 C-337.00365182 121.35691098 -336.39639717 119.44797401 -335.7890625 117.5390625 C-335.51725159 116.67591934 -335.24544067 115.81277618 -334.96539307 114.92347717 C-333.11322746 109.11322746 -333.11322746 109.11322746 -332 108 C-330.33382885 107.95936168 -328.66611905 107.957279 -327 108 C-324.24928349 115.66640972 -321.49948275 123.33314772 -318.75 131 C-318.33004761 132.17093201 -317.91009521 133.34186401 -317.47741699 134.54827881 C-312.48534461 148.46872575 -307.50017082 162.39158476 -302.53125 176.3203125 C-302.08238178 177.57835046 -301.63350892 178.83638676 -301.18463135 180.09442139 C-299.04330128 186.09632673 -296.90311634 192.09863679 -294.76464844 198.1015625 C-290.25083834 210.76246178 -285.6807709 223.39981956 -281 236 C-277.85498252 236 -276.24004241 233.88720379 -273.90039062 231.98754883 C-248.70016751 211.62537945 -214.7414688 196.15329053 -182 195 C-181.86102295 194.39913574 -181.7220459 193.79827148 -181.57885742 193.17919922 C-179.15411418 183.0914791 -176.18782445 173.16494817 -173.23168945 163.22265625 C-172.32544173 160.16861346 -171.42916535 157.11176092 -170.53320312 154.0546875 C-165.20378586 136.01309073 -159.46754209 118.03057286 -151.125 101.125 C-150.61670654 100.08255127 -150.10841309 99.04010254 -149.5847168 97.96606445 C-133.26622928 65.04655126 -108.19166954 35.20577566 -76 17 C-75.06027344 16.46761719 -74.12054687 15.93523438 -73.15234375 15.38671875 C-50.80519004 3.4907786 -25.06795895 -0.39570308 0 0 Z " fill="#090909" transform="translate(759,30)"/>
<path d="M0 0 C0.75728394 0.00202423 1.51456787 0.00404846 2.2947998 0.00613403 C3.06787476 0.00517731 3.84094971 0.00422058 4.63745117 0.00323486 C6.27502524 0.00255313 7.91260199 0.00440697 9.5501709 0.00857544 C12.06536901 0.01392382 14.58038854 0.00863027 17.09558105 0.00222778 C18.68282103 0.00288857 20.2700609 0.00416973 21.8572998 0.00613403 C22.99322571 0.00309769 22.99322571 0.00309769 24.15209961 0 C29.46109849 0.02399522 29.46109849 0.02399522 30.5760498 1.13894653 C30.75581423 2.53592461 30.87603223 3.94065807 30.97058105 5.34597778 C31.06979858 6.67604858 31.06979858 6.67604858 31.17102051 8.0329895 C31.27869751 9.47762573 31.27869751 9.47762573 31.3885498 10.95144653 C32.77898461 27.56897016 36.10294332 43.39488048 41.5760498 59.13894653 C42.01690918 60.4499231 42.01690918 60.4499231 42.4666748 61.78738403 C55.54302035 97.56902047 85.40435417 125.85137812 119.1385498 141.88894653 C136.6016894 149.42867001 156.08693127 154.23549423 175.15808105 154.34207153 C175.97113205 154.34777161 176.78418304 154.35347168 177.62187195 154.35934448 C179.34055298 154.36875094 181.05925169 154.37531105 182.7779541 154.37918091 C185.34315823 154.38877673 187.9075213 154.41979497 190.47253418 154.45144653 C231.77741359 154.71497716 269.94293021 138.86821457 299.6072998 110.20925903 C328.9337024 80.67392481 337.87509434 40.72300837 343.5760498 1.13894653 C345.23219638 0.75675886 346.90062005 0.42499552 348.5760498 0.13894653 C350.69604298 2.25893971 349.82560966 6.25305326 349.82702637 9.10452271 C349.37639432 39.02717317 342.31356843 69.99494681 327.5760498 96.13894653 C327.02956787 97.12604614 327.02956787 97.12604614 326.4720459 98.13308716 C320.63831571 108.52983404 313.60016569 117.05595785 305.20544434 125.49050903 C303.74996162 126.96300219 302.33028447 128.47068979 300.91589355 129.98269653 C294.81519656 136.410748 288.03431749 141.42243484 280.5760498 146.13894653 C279.51901855 146.81828247 278.4619873 147.49761841 277.3729248 148.19754028 C263.57312507 156.58533325 248.45498518 161.68708632 232.8260498 165.51394653 C231.85820557 165.75258423 230.89036133 165.99122192 229.89318848 166.23709106 C214.22532631 169.85244993 198.59266495 170.54732294 182.5760498 170.51394653 C181.63405731 170.51373505 180.69206482 170.51352356 179.7215271 170.51330566 C164.64202071 170.47961433 150.32210197 169.51017468 135.5760498 166.13894653 C134.68498535 165.94639282 133.7939209 165.75383911 132.87585449 165.55545044 C121.40290415 163.05579235 110.38464722 159.73186525 99.5760498 155.13894653 C98.90009766 154.85180786 98.22414551 154.56466919 97.52770996 154.26882935 C76.59222967 145.21326738 59.0972746 132.7565797 42.5760498 117.13894653 C41.70722168 116.32425903 40.83839355 115.50957153 39.9432373 114.67019653 C9.00934297 84.80298821 -3.37486864 44.91942641 -6.4173584 3.13821411 C-6.41953369 2.47845581 -6.42170898 1.81869751 -6.4239502 1.13894653 C-4.66322436 -0.6217793 -2.34498729 0.0105987 0 0 Z " fill="#0C0C0C" transform="translate(428.4239501953125,396.8610534667969)"/>
<path d="M0 0 C34.98 0 69.96 0 106 0 C106 1.98 106 3.96 106 6 C104.78763672 6.16435547 104.78763672 6.16435547 103.55078125 6.33203125 C102.48214844 6.49058594 101.41351563 6.64914063 100.3125 6.8125 C99.25675781 6.96332031 98.20101562 7.11414063 97.11328125 7.26953125 C93.8757147 8.02916104 91.76954207 9.20239262 89 11 C88.01 11.33 87.02 11.66 86 12 C84.81608777 14.37625345 84.81608777 14.37625345 84 17 C83.505 18.485 83.505 18.485 83 20 C82.35838896 27.61199149 83.47916016 34.10794015 85.82421875 41.31640625 C86.12229431 42.27574066 86.42036987 43.23507507 86.72747803 44.22348022 C87.69979127 47.3411986 88.69353561 50.45162433 89.6875 53.5625 C90.36685695 55.72876532 91.04465408 57.89552038 91.72094727 60.06274414 C93.11011058 64.50692158 94.50747096 68.94838503 95.91210938 73.38769531 C98.8367645 82.63643354 101.70922543 91.9012672 104.57803345 101.16744995 C105.42729419 103.90460682 106.2817991 106.64007935 107.13745117 109.37524414 C107.65289616 111.0300907 108.16828061 112.68495612 108.68359375 114.33984375 C108.92035828 115.09268646 109.1571228 115.84552917 109.40106201 116.6211853 C111 121.77334409 111 121.77334409 111 124 C99.78 124 88.56 124 77 124 C71.69005954 109.73448831 66.47905933 95.45596246 61.52599144 81.06286621 C60.83725097 79.06278313 60.14685231 77.06328027 59.45588684 75.06396484 C59.22561515 74.39754723 58.99534346 73.73112961 58.75809383 73.04451752 C58.29003424 71.68993302 57.82192811 70.3353646 57.35377598 68.98081207 C55.95874617 64.94049994 54.57551907 60.89637047 53.20018864 56.84931374 C52.53315771 54.89322094 51.86022268 52.93927349 51.18482971 50.98605347 C50.35114669 48.57438129 49.52670863 46.15948334 48.71372986 43.74075317 C43.72731157 29.42699758 37.57173556 18.77662248 23.9375 11.6875 C15.94553454 7.93127623 8.74693028 6.60105488 0 6 C0 4.02 0 2.04 0 0 Z " fill="#0B0B0B" transform="translate(185,145)"/>
<path d="M0 0 C4.29165262 -0.02891949 8.58328036 -0.04677118 12.875 -0.0625 C14.70998047 -0.07506836 14.70998047 -0.07506836 16.58203125 -0.08789062 C18.33193359 -0.09272461 18.33193359 -0.09272461 20.1171875 -0.09765625 C21.73536377 -0.10551147 21.73536377 -0.10551147 23.38623047 -0.11352539 C26 0 26 0 28 1 C28.73075648 3.3140622 29.40138258 5.64828869 30 8 C32.06418579 5.28221897 32.06418579 5.28221897 32.5 2.875 C32.665 2.25625 32.83 1.6375 33 1 C35.40059817 -0.20029908 36.89360649 -0.11459743 39.5703125 -0.09765625 C40.46621094 -0.09443359 41.36210937 -0.09121094 42.28515625 -0.08789062 C43.69087891 -0.07532227 43.69087891 -0.07532227 45.125 -0.0625 C46.06988281 -0.05798828 47.01476562 -0.05347656 47.98828125 -0.04882812 C50.32558387 -0.03702357 52.66276061 -0.02055759 55 0 C56.16812791 3.50438373 55.78466124 4.43509686 54.67993164 7.87255859 C54.20802147 9.3621962 54.20802147 9.3621962 53.72657776 10.88192749 C53.37465866 11.95987579 53.02273956 13.0378241 52.66015625 14.1484375 C52.30038193 15.27077789 51.9406076 16.39311829 51.56993103 17.54946899 C50.80144469 19.93995014 50.02856837 22.32902367 49.25170898 24.71679688 C48.08857813 28.29477938 46.94055728 31.87732045 45.79492188 35.4609375 C42.31565915 46.27915541 38.73260148 57.04320039 34.70703125 67.671875 C34.39717789 68.49263519 34.08732452 69.31339539 33.76808167 70.1590271 C20.4040499 104.71702619 -5.30413251 135.38719236 -38.83203125 151.65234375 C-44.40712892 154.02399443 -50.11456345 155.59934691 -56 157 C-56.94101563 157.226875 -57.88203125 157.45375 -58.8515625 157.6875 C-72.0037522 160.35498636 -87.97380114 160.52883648 -101 157 C-101.66 156.34 -102.32 155.68 -103 155 C-102.625 152.875 -102.625 152.875 -102 151 C-101.36199463 151.02618408 -100.72398926 151.05236816 -100.06665039 151.0793457 C-86.19966143 151.57117121 -73.92747025 151.33015716 -61 146 C-60.38479492 145.74831055 -59.76958984 145.49662109 -59.13574219 145.23730469 C-47.54396031 140.32238917 -37.77590571 132.96051214 -29 124 C-28.25621094 123.30261719 -27.51242187 122.60523438 -26.74609375 121.88671875 C-11.13669103 107.0168478 -0.10527969 88.29081407 9.0625 68.94775391 C9.9884938 67.02390533 10.95951257 65.12830106 11.9375 63.23046875 C12.52287152 62.02963725 13.10629995 60.82785602 13.6875 59.625 C14.20699219 58.58601563 14.72648437 57.54703125 15.26171875 56.4765625 C16.02904302 52.86323658 15.84291106 51.77294361 14.75805664 48.3840332 C14.47622025 47.49862854 14.19438385 46.61322388 13.90400696 45.70098877 C12.52290914 41.57454961 11.08714986 37.4716519 9.609375 33.37890625 C8.97616448 31.60235536 8.34336338 29.82565849 7.7109375 28.04882812 C6.72519856 25.28663338 5.73666842 22.52555424 4.74121094 19.7668457 C3.77236418 17.07789345 2.81496662 14.38509253 1.859375 11.69140625 C1.40640045 10.44926109 1.40640045 10.44926109 0.9442749 9.18202209 C0.67359192 8.41369553 0.40290894 7.64536896 0.12402344 6.85375977 C-0.2387973 5.84310204 -0.2387973 5.84310204 -0.60894775 4.81202698 C-1 3 -1 3 0 0 Z " fill="#0D0D0D" transform="translate(309,397)"/>
<path d="M0 0 C335.28 0 670.56 0 1016 0 C1016 1.32 1016 2.64 1016 4 C680.72 4 345.44 4 0 4 C0 2.68 0 1.36 0 0 Z " fill="#E3E6EA" transform="translate(0,700)"/>
<path d="M0 0 C0.95708359 0.00222061 1.91416718 0.00444122 2.9002533 0.00672913 C3.98129837 0.00680466 5.06234344 0.00688019 6.17614746 0.00695801 C7.94018166 0.01469994 7.94018166 0.01469994 9.73985291 0.02259827 C10.93702438 0.02401321 12.13419586 0.02542816 13.36764526 0.02688599 C17.20918732 0.03250472 21.05067208 0.04506041 24.89219666 0.05775452 C27.48920102 0.0627671 30.0862063 0.06733043 32.68321228 0.07142639 C39.06539344 0.08248024 45.44754096 0.0992366 51.82969666 0.12025452 C53.14647911 4.37433848 52.02471205 7.24216441 50.51329041 11.28822327 C49.99333138 12.74106158 49.4737335 14.19402918 48.95445251 15.64710999 C48.67858307 16.40747559 48.40271362 17.16784119 48.1184845 17.95124817 C40.16091511 39.97912387 34.6209314 61.83548045 31.82969666 85.12025452 C30.17969666 85.12025452 28.52969666 85.12025452 26.82969666 85.12025452 C22.98204812 76.19572729 19.60544474 67.13893814 16.38047791 57.97572327 C15.8769818 56.55224535 15.37324883 55.12885119 14.86929321 53.70553589 C13.82265742 50.74726482 12.77828971 47.78820675 11.73570251 44.82850647 C10.40471242 41.05041647 9.06883766 37.27407611 7.73138142 33.49827099 C6.69425075 30.56908433 5.65925823 27.63914584 4.62494469 24.70896339 C4.13313471 23.31621687 3.64077563 21.92366411 3.14783669 20.53131676 C2.45936701 18.58537769 1.77368224 16.6384789 1.08872986 14.69129944 C0.69965958 13.58832016 0.31058929 12.48534088 -0.090271 11.34893799 C-1.2237479 7.96048565 -2.21347224 4.56216383 -3.17030334 1.12025452 C-2.17030334 0.12025452 -2.17030334 0.12025452 0 0 Z " fill="#0C0C0C" transform="translate(493.17030334472656,396.87974548339844)"/>
<path d="M0 0 C5.61 0 11.22 0 17 0 C16.67 1.65 16.34 3.3 16 5 C14.68 5 13.36 5 12 5 C12.28617188 6.0828125 12.57234375 7.165625 12.8671875 8.28125 C14.20723007 13.6414203 15.16153446 19.06177227 16.125 24.5 C16.30675781 25.51320313 16.48851563 26.52640625 16.67578125 27.5703125 C17.11961747 30.04645144 17.56096621 32.52300587 18 35 C18.4439209 34.01080566 18.8878418 33.02161133 19.34521484 32.00244141 C20.99183605 28.33646747 22.64441977 24.67320766 24.29882812 21.01074219 C25.01432889 19.42456399 25.72820575 17.83765225 26.44042969 16.25 C27.4638449 13.96940899 28.49305165 11.69151102 29.5234375 9.4140625 C29.84122162 8.70255035 30.15900574 7.99103821 30.48641968 7.25796509 C31.76641401 4.44120453 32.79322465 2.20677535 35 0 C37.625 -0.125 37.625 -0.125 40 0 C42.54288622 7.07844352 44.17875445 14.12593316 45.625 21.5 C46.05130899 23.6569205 46.48081548 25.81321238 46.9140625 27.96875 C47.0992041 28.91169922 47.2843457 29.85464844 47.47509766 30.82617188 C47.79177291 32.96556668 47.79177291 32.96556668 49 34 C52.96 24.43 56.92 14.86 61 5 C59.68 4.67 58.36 4.34 57 4 C57 2.68 57 1.36 57 0 C62.61 0 68.22 0 74 0 C73.67 1.65 73.34 3.3 73 5 C71.68 5 70.36 5 69 5 C68.74621582 5.81098145 68.49243164 6.62196289 68.23095703 7.45751953 C66.78204288 11.62724272 65.06935152 15.6357726 63.3046875 19.6796875 C62.95238068 20.49245148 62.60007385 21.30521545 62.23709106 22.14260864 C61.11875531 24.72110498 59.9969332 27.29806721 58.875 29.875 C58.11305 31.63010796 57.35132879 33.38531526 56.58984375 35.140625 C54.72920889 39.42823782 52.86544722 43.71447887 51 48 C48.69 48 46.38 48 44 48 C42.52525228 43.79836028 41.4112986 39.6448499 40.4921875 35.2890625 C40.22792969 34.04511719 39.96367187 32.80117188 39.69140625 31.51953125 C39.42199219 30.23433594 39.15257812 28.94914062 38.875 27.625 C38.59536984 26.30331815 38.31542486 24.98170286 38.03515625 23.66015625 C37.35367495 20.44074461 36.67539866 17.22069222 36 14 C33.39398558 16.60601442 32.2411917 19.61831052 30.77734375 22.94140625 C30.47180069 23.62428207 30.16625763 24.3071579 29.85145569 25.01072693 C28.8757991 27.1927462 27.90627368 29.37741715 26.9375 31.5625 C25.96436859 33.75078639 24.9899306 35.93846648 24.01283264 38.12498474 C23.40489277 39.4860629 22.79939089 40.84823305 22.19651794 42.21156311 C20.11173191 46.88826809 20.11173191 46.88826809 19 48 C16.66702567 48.04092937 14.33294775 48.04241723 12 48 C11.77860352 46.73816895 11.55720703 45.47633789 11.32910156 44.17626953 C10.50433225 39.50274596 9.65657882 34.83363959 8.80175781 30.16552734 C8.43477487 28.143224 8.07406485 26.11977199 7.71972656 24.09521484 C7.20976091 21.18784085 6.67749214 18.28532323 6.140625 15.3828125 C5.90910736 14.02024826 5.90910736 14.02024826 5.6729126 12.63015747 C5.51304871 11.78943695 5.35318481 10.94871643 5.18847656 10.08251953 C4.98862152 8.96999313 4.98862152 8.96999313 4.784729 7.83499146 C4.12569559 5.80066981 4.12569559 5.80066981 1.92572021 4.74484253 C1.29023254 4.49904449 0.65474487 4.25324646 0 4 C0 2.68 0 1.36 0 0 Z " fill="#1F1F1F" transform="translate(105,305)"/>
<path d="M0 0 C3.97131914 -1.01925491 7.04869306 -1.18790884 11 0 C14.60555321 3.79999753 17.05314098 8.08785408 19.62744141 12.62792969 C21.63785925 16.10235512 23.80856554 19.46912305 25.97094727 22.8503418 C28.33759472 26.5520928 30.66863174 30.27596821 33 34 C34.37032056 26.79055876 35.48279368 19.61652921 36.29882812 12.32617188 C36.89905973 7.20188053 36.89905973 7.20188053 38 5 C36.35 5 34.7 5 33 5 C33 3.35 33 1.7 33 0 C38.61 0 44.22 0 50 0 C49.34 1.65 48.68 3.3 48 5 C46.68 5 45.36 5 44 5 C43.95174072 5.83225098 43.90348145 6.66450195 43.85375977 7.52197266 C43.2768344 16.54606263 42.22734086 25.4235956 40.9375 34.375 C40.74891224 35.70827163 40.56075942 37.04160486 40.37304688 38.375 C39.91960671 41.58396115 39.46187325 44.79224376 39 48 C36.25805664 48.33789062 36.25805664 48.33789062 33 48 C30.83764648 45.74023438 30.83764648 45.74023438 28.87109375 42.59375 C28.51410904 42.03562622 28.15712433 41.47750244 27.7893219 40.90246582 C26.65167009 39.11359569 25.5446429 37.30787541 24.4375 35.5 C23.69009858 34.31387475 22.94076714 33.12896332 22.18945312 31.9453125 C20.10196339 28.64511366 18.04925925 25.32408609 16 22 C14.99218028 20.3846081 13.98330524 18.76987331 12.97265625 17.15625 C12.32167969 16.1146875 11.67070313 15.073125 11 14 C10.51915734 17.16641449 10.04063706 20.33317593 9.5625 23.5 C9.42779297 24.386875 9.29308594 25.27375 9.15429688 26.1875 C8.36088751 31.45109386 7.63592563 36.71502584 7 42 C8.65 42.66 10.3 43.32 12 44 C11.67 45.32 11.34 46.64 11 48 C5.72 48 0.44 48 -5 48 C-4.67 46.35 -4.34 44.7 -4 43 C-2.68 43 -1.36 43 0 43 C0.03738281 42.34 0.07476563 41.68 0.11328125 41 C0.89184451 29.27575326 2.48618845 17.64766199 4 6 C2.68 5.34 1.36 4.68 0 4 C0 2.68 0 1.36 0 0 Z " fill="#1E1E1E" transform="translate(765,305)"/>
<path d="M0 0 C4.68043551 4.93920959 6.27559804 9.38973699 6.4375 16.12890625 C6.03573363 25.04309758 3.11529947 32.31191984 -3.4375 38.46484375 C-9.58264339 43.33501347 -15.3361368 45.08920067 -23.16796875 44.8125 C-29.78736197 44.04427153 -34.36600968 41.75981757 -38.625 36.52734375 C-42.53769381 30.65830304 -43.26754284 23.76313589 -42.22265625 16.875 C-40.03901586 8.48930406 -35.9452156 2.72414566 -28.625 -1.91015625 C-19.69385192 -6.80102306 -7.94703552 -7.20200094 0 0 Z M-30.1953125 7.43359375 C-34.60105234 14.18066962 -35.460306 20.52232794 -34.625 28.52734375 C-32.48853475 32.95853094 -30.24922478 35.75636405 -25.625 37.52734375 C-18.47212391 38.42561191 -13.40903574 37.89488094 -7.625 33.52734375 C-2.65346673 28.42144472 -1.50842691 23.49625614 -1.25 16.52734375 C-1.34545433 11.39190101 -1.97892129 8.3705078 -5.625 4.52734375 C-9.43284317 1.16748213 -13.16969626 1.00547605 -18.0625 1.1875 C-23.08997819 1.85425397 -26.9314127 3.47144673 -30.1953125 7.43359375 Z " fill="#222222" transform="translate(227.625,309.47265625)"/>
<path d="M0 0 C4.09251025 3.61955505 6.43005688 7.82097993 6.89453125 13.25 C7.10505771 22.54640532 5.59169411 29.01974267 0.46875 36.77734375 C-6.27338383 43.21982719 -13.4698243 45.86444232 -22.6796875 45.7421875 C-28.44745668 45.14173059 -33.4192384 42.89751477 -37.28125 38.52734375 C-42.10656421 31.36248326 -42.22730609 24.43845122 -40.984375 16.03515625 C-39.06012607 8.72821098 -33.70086972 2.25720421 -27.375 -1.796875 C-18.44640436 -5.81082699 -8.08233005 -5.71394235 0 0 Z M-29.03125 8.08984375 C-33.05150272 13.37211756 -34.68856905 19.04582742 -34.28125 25.65234375 C-33.64786786 30.07913412 -32.33258208 33.04903566 -29.34375 36.46484375 C-24.48980398 39.57222641 -18.88701533 39.06009372 -13.34375 38.46484375 C-7.25016975 35.58424218 -3.28432217 31.03004057 -0.96875 24.71484375 C0.27682869 18.46299688 -0.2445395 12.66326475 -3.09375 6.96484375 C-6.15517438 3.5632611 -8.14043378 2.66782933 -12.67578125 2.25 C-19.67464226 1.98767388 -23.89965726 3.07759037 -29.03125 8.08984375 Z " fill="#212121" transform="translate(688.34375,308.53515625)"/>
<path d="M0 0 C4.02069425 -0.08765069 8.0411401 -0.14061018 12.0625 -0.1875 C13.7630957 -0.22520508 13.7630957 -0.22520508 15.49804688 -0.26367188 C21.77070828 -0.3185348 26.53006237 -0.20913123 32 3 C34.62151466 6.440738 35.24260296 9.2086824 35.0625 13.4375 C34.29468273 18.43253103 31.92554785 21.86477262 28 25 C25.296875 26.19140625 25.296875 26.19140625 23 27 C24.21390824 29.2802197 25.44482671 31.54802353 26.6875 33.8125 C27.02716797 34.45509766 27.36683594 35.09769531 27.71679688 35.75976562 C30.00253739 39.88264338 31.87183686 41.59250731 36 44 C36 45.32 36 46.64 36 48 C32.52865447 48.54554594 29.45241062 48.73868559 26 48 C23.3037715 45.46386942 21.85874148 42.42768111 20.25 39.125 C17.20660014 32.58923829 17.20660014 32.58923829 11.671875 28.4296875 C10.79015625 28.28789062 9.9084375 28.14609375 9 28 C8.93941406 28.83144531 8.87882813 29.66289062 8.81640625 30.51953125 C8.73261719 31.60621094 8.64882813 32.69289063 8.5625 33.8125 C8.48128906 34.89144531 8.40007813 35.97039062 8.31640625 37.08203125 C8 40 8 40 7 43 C8.65 43.33 10.3 43.66 12 44 C11.67 45.32 11.34 46.64 11 48 C5.39 48 -0.22 48 -6 48 C-5.34 46.35 -4.68 44.7 -4 43 C-2.68 43 -1.36 43 0 43 C0.03738281 42.35160156 0.07476563 41.70320313 0.11328125 41.03515625 C0.92167974 28.97258267 2.50974783 16.99351584 4 5 C2.68 4.67 1.36 4.34 0 4 C0 2.68 0 1.36 0 0 Z M12 6 C10.7017874 11.76081841 9.74293028 17.08739655 10 23 C15.69969959 23.34198198 20.16558931 23.45315049 25 20 C27.15049156 17.28255956 27.15049156 17.28255956 28 14 C27.52490784 10.7401469 27.52490784 10.7401469 26 8 C22.57905758 5.71937172 21.31812778 5.78074993 17.3125 5.875 C16.31863281 5.89304687 15.32476563 5.91109375 14.30078125 5.9296875 C13.54152344 5.95289063 12.78226563 5.97609375 12 6 Z " fill="#1D1D1D" transform="translate(529,305)"/>
<path d="M0 0 C4.04152915 -0.08746928 8.08281305 -0.14054982 12.125 -0.1875 C13.26710938 -0.21263672 14.40921875 -0.23777344 15.5859375 -0.26367188 C22.56323415 -0.32452039 26.97875648 0.2267286 32.8125 4.25 C34.77735504 7.14557586 34.88619178 9.5288493 35 13 C33.78143805 19.23477813 31.09590197 22.39040277 26 26 C25.01 26.66 24.02 27.32 23 28 C23.5775 28.91523438 24.155 29.83046875 24.75 30.7734375 C25.5002341 31.97381205 26.25022133 33.17434092 27 34.375 C27.57234375 35.27992188 27.57234375 35.27992188 28.15625 36.203125 C31 40.7734375 31 40.7734375 31 43 C32.65 43.33 34.3 43.66 36 44 C36 45.32 36 46.64 36 48 C32.52865447 48.54554594 29.45241062 48.73868559 26 48 C23.3037715 45.46386942 21.85874148 42.42768111 20.25 39.125 C19.3969869 37.45227462 18.52766797 35.78774341 17.640625 34.1328125 C17.27485352 33.38918457 16.90908203 32.64555664 16.53222656 31.87939453 C14.71733213 29.31081561 14.71733213 29.31081561 9 28 C8.34 32.95 7.68 37.9 7 43 C8.32 43.33 9.64 43.66 11 44 C11 45.32 11 46.64 11 48 C5.39 48 -0.22 48 -6 48 C-5.67 46.68 -5.34 45.36 -5 44 C-2.525 43.505 -2.525 43.505 0 43 C0.03738281 42.18402344 0.07476562 41.36804688 0.11328125 40.52734375 C0.7750968 28.60168704 2.36163249 16.82614664 4 5 C2.68 5 1.36 5 0 5 C0 3.35 0 1.7 0 0 Z M11 6 C10.34 11.61 9.68 17.22 9 23 C17.45803356 23.45434604 17.45803356 23.45434604 25 20 C27.62054313 16.66476329 27.44773447 13.10423268 27 9 C24.67982539 6.57991356 23.34278616 6.03330176 19.984375 5.70703125 C18.38335937 5.75923828 18.38335937 5.75923828 16.75 5.8125 C14.8525 5.874375 12.955 5.93625 11 6 Z " fill="#1D1D1D" transform="translate(247,305)"/>
<path d="M0 0 C5.94 0 11.88 0 18 0 C17.34 1.65 16.68 3.3 16 5 C13.875 5.8125 13.875 5.8125 12 6 C8.79758655 23.19606661 8.79758655 23.19606661 11 40 C16.21093481 41.73697827 21.78907535 41.8467371 26.9375 39.875 C32.62879005 34.70109996 32.83087233 27.57629414 33.625 20.375 C33.86525123 18.3200852 34.10736437 16.26538701 34.3515625 14.2109375 C34.45291504 13.30649902 34.55426758 12.40206055 34.65869141 11.47021484 C34.96532944 9.25092757 35.40772474 7.15824853 36 5 C33.525 4.505 33.525 4.505 31 4 C31 2.68 31 1.36 31 0 C36.94 0 42.88 0 49 0 C48.34 1.65 47.68 3.3 47 5 C45.68 5 44.36 5 43 5 C42.95101562 5.84820312 42.90203125 6.69640625 42.8515625 7.5703125 C40.99821321 36.64872379 40.99821321 36.64872379 32.625 44.375 C27.57072244 48.31562318 22.64547484 49.48347824 16.30859375 49.3125 C10.73949286 48.5586454 7.03150095 46.29598837 3.5625 41.9375 C-1.86924492 31.72581956 2.35367244 16.12469882 4 5 C2.68 4.67 1.36 4.34 0 4 C0 2.68 0 1.36 0 0 Z " fill="#202020" transform="translate(706,305)"/>
<path d="M0 0 C11.55 0 23.1 0 35 0 C34.67 3.96 34.34 7.92 34 12 C32.35 12 30.7 12 29 12 C29 10.02 29 8.04 29 6 C20.585 6.495 20.585 6.495 12 7 C11.34 11.62 10.68 16.24 10 21 C15.61 21 21.22 21 27 21 C27 22.98 27 24.96 27 27 C21.06 27 15.12 27 9 27 C8.855625 28.918125 8.71125 30.83625 8.5625 32.8125 C8.31275672 36.13051782 8.0541518 38.83754459 7 42 C15.415 41.505 15.415 41.505 24 41 C24.33 39.68 24.66 38.36 25 37 C27.475 36.505 27.475 36.505 30 36 C31.36088895 40.08266686 30.68398693 42.75928101 30 47 C29 48 29 48 25.67358398 48.11352539 C24.19774444 48.11336629 22.72189931 48.10767314 21.24609375 48.09765625 C20.47064713 48.0962413 19.6952005 48.09482635 18.89625549 48.09336853 C16.40996506 48.08775345 13.9237634 48.07519846 11.4375 48.0625 C9.75586067 48.05748694 8.07421994 48.0529237 6.39257812 48.04882812 C2.26168434 48.03777913 -1.86914276 48.02050445 -6 48 C-5.34 46.35 -4.68 44.7 -4 43 C-2.68 43 -1.36 43 0 43 C0.03738281 42.18402344 0.07476562 41.36804688 0.11328125 40.52734375 C0.7750968 28.60168704 2.36163249 16.82614664 4 5 C2.68 4.67 1.36 4.34 0 4 C0 2.68 0 1.36 0 0 Z " fill="#1F1F1F" transform="translate(483,305)"/>
<path d="M0 0 C11.55 0 23.1 0 35 0 C34.67 3.96 34.34 7.92 34 12 C32.35 12 30.7 12 29 12 C29 10.02 29 8.04 29 6 C20.585 6.495 20.585 6.495 12 7 C11.34 11.62 10.68 16.24 10 21 C15.61 21 21.22 21 27 21 C27 22.98 27 24.96 27 27 C21.06 27 15.12 27 9 27 C8.855625 28.918125 8.71125 30.83625 8.5625 32.8125 C8.31275672 36.13051782 8.0541518 38.83754459 7 42 C15.415 41.505 15.415 41.505 24 41 C24.33 39.68 24.66 38.36 25 37 C27.475 36.505 27.475 36.505 30 36 C31.36088895 40.08266686 30.68398693 42.75928101 30 47 C29 48 29 48 25.67358398 48.11352539 C24.19774444 48.11336629 22.72189931 48.10767314 21.24609375 48.09765625 C20.47064713 48.0962413 19.6952005 48.09482635 18.89625549 48.09336853 C16.40996506 48.08775345 13.9237634 48.07519846 11.4375 48.0625 C9.75586067 48.05748694 8.07421994 48.0529237 6.39257812 48.04882812 C2.26168434 48.03777913 -1.86914276 48.02050445 -6 48 C-5.34 46.35 -4.68 44.7 -4 43 C-2.68 43 -1.36 43 0 43 C0.03738281 42.18402344 0.07476562 41.36804688 0.11328125 40.52734375 C0.7750968 28.60168704 2.36163249 16.82614664 4 5 C2.68 4.67 1.36 4.34 0 4 C0 2.68 0 1.36 0 0 Z " fill="#1F1F1F" transform="translate(347,305)"/>
<path d="M0 0 C0.02712066 1.43739513 0.04645067 2.87493863 0.0625 4.3125 C0.07410156 5.11300781 0.08570313 5.91351563 0.09765625 6.73828125 C0 9 0 9 -1 12 C-3.475 11.505 -3.475 11.505 -6 11 C-6.33 9.02 -6.66 7.04 -7 5 C-8.77007714 4.91885894 -10.54122098 4.86074495 -12.3125 4.8125 C-13.29863281 4.77769531 -14.28476562 4.74289062 -15.30078125 4.70703125 C-18.01861763 4.76390943 -18.01861763 4.76390943 -19.796875 6.390625 C-21.27777193 8.37156504 -21.92442463 9.50601281 -22 12 C-19.71533148 15.48139965 -16.82305593 16.53992026 -13.0625 17.9375 C-7.95416644 19.84370707 -4.51278008 21.97443984 -2 27 C-1.94020916 32.97908434 -3.02637091 37.38199863 -7 42 C-13.37417407 46.81315185 -18.23611654 47.4916745 -26 47 C-28.74935805 46.4924941 -31.31353521 45.79598957 -34 45 C-34.0272415 43.58344207 -34.04650467 42.16672955 -34.0625 40.75 C-34.07410156 39.96109375 -34.08570313 39.1721875 -34.09765625 38.359375 C-34.00385306 36.09308998 -33.63241063 34.1711105 -33 32 C-31.35 32 -29.7 32 -28 32 C-28 34.31 -28 36.62 -28 39 C-21.70333298 40.18508699 -17.60116679 40.31497626 -12 37 C-10.1352439 34.66905487 -9.99076556 33.52468424 -10.04296875 30.55859375 C-10.80223886 27.68144618 -10.80223886 27.68144618 -14.01953125 26.33984375 C-15.27641652 25.85275094 -16.54130767 25.38593066 -17.8125 24.9375 C-22.30821724 23.29474559 -25.93915558 21.84834323 -29 18 C-30.58729792 12.39154735 -29.80558327 9.05004988 -27 4 C-20.34041033 -4.09950096 -9.08792881 -5.30491538 0 0 Z " fill="#242424" transform="translate(423,307)"/>
<path d="M0 0 C-0.33 3.96 -0.66 7.92 -1 12 C-3.475 11.505 -3.475 11.505 -6 11 C-6.93423645 7.98968256 -7.04449911 7.13349732 -6 4 C-8.37570543 3.9183918 -10.74855841 3.85922778 -13.125 3.8125 C-13.79015625 3.78736328 -14.4553125 3.76222656 -15.140625 3.73632812 C-19.88343661 3.6665809 -22.98184051 4.5047581 -27 7 C-32.33150095 12.45267143 -34.06040899 17.0005563 -34.375 24.5 C-34.28791129 29.42386148 -33.36800463 32.24708056 -30 36 C-26.46575288 38.35616475 -24.81355898 38.2981228 -20.625 38.3125 C-19.50351562 38.32925781 -18.38203125 38.34601563 -17.2265625 38.36328125 C-13.7078526 37.96710689 -11.92161168 36.91363007 -9 35 C-6.6875 35.3125 -6.6875 35.3125 -5 36 C-5 37.32 -5 38.64 -5 40 C-6.609375 41.44921875 -6.609375 41.44921875 -8.75 42.6875 C-9.44609375 43.10386719 -10.1421875 43.52023437 -10.859375 43.94921875 C-16.3785241 46.6584361 -23.09549481 47.02117828 -29.03125 45.46875 C-35.07041586 43.0318936 -38.70582749 40.20159841 -41.3125 34.25 C-44.27672576 26.00800644 -43.3891168 19.04435647 -40 11 C-35.93854543 3.75011381 -30.1232028 -0.90827848 -22.1875 -3.375 C-14.45925259 -4.97237397 -6.93444562 -3.5442722 0 0 Z " fill="#242424" transform="translate(640,308)"/>
<path d="M0 0 C-0.33 3.96 -0.66 7.92 -1 12 C-3.475 11.505 -3.475 11.505 -6 11 C-6.93423645 7.98968256 -7.04449911 7.13349732 -6 4 C-8.37570543 3.9183918 -10.74855841 3.85922778 -13.125 3.8125 C-13.79015625 3.78736328 -14.4553125 3.76222656 -15.140625 3.73632812 C-19.88343661 3.6665809 -22.98184051 4.5047581 -27 7 C-32.33150095 12.45267143 -34.06040899 17.0005563 -34.375 24.5 C-34.28791129 29.42386148 -33.36800463 32.24708056 -30 36 C-26.46575288 38.35616475 -24.81355898 38.2981228 -20.625 38.3125 C-19.50351562 38.32925781 -18.38203125 38.34601563 -17.2265625 38.36328125 C-13.7078526 37.96710689 -11.92161168 36.91363007 -9 35 C-6.6875 35.3125 -6.6875 35.3125 -5 36 C-5 37.32 -5 38.64 -5 40 C-6.609375 41.44921875 -6.609375 41.44921875 -8.75 42.6875 C-9.44609375 43.10386719 -10.1421875 43.52023437 -10.859375 43.94921875 C-16.3785241 46.6584361 -23.09549481 47.02117828 -29.03125 45.46875 C-35.07041586 43.0318936 -38.70582749 40.20159841 -41.3125 34.25 C-44.27672576 26.00800644 -43.3891168 19.04435647 -40 11 C-35.93854543 3.75011381 -30.1232028 -0.90827848 -22.1875 -3.375 C-14.45925259 -4.97237397 -6.93444562 -3.5442722 0 0 Z " fill="#242424" transform="translate(336,308)"/>
<path d="M0 0 C5.61 0 11.22 0 17 0 C16.67 1.65 16.34 3.3 16 5 C15.01 5.33 14.02 5.66 13 6 C13.433125 6.90363281 13.86625 7.80726563 14.3125 8.73828125 C14.869375 9.91777344 15.42625 11.09726562 16 12.3125 C16.556875 13.48425781 17.11375 14.65601563 17.6875 15.86328125 C19 19 19 19 19 22 C22.50697095 18.75042141 25.09368873 15.18687827 27.75 11.25 C28.16121094 10.64800781 28.57242188 10.04601562 28.99609375 9.42578125 C30.00123432 7.95313343 31.00115478 6.47692498 32 5 C30.68 4.67 29.36 4.34 28 4 C28.33 2.68 28.66 1.36 29 0 C34.28 0 39.56 0 45 0 C44.67 1.65 44.34 3.3 44 5 C42.68 5 41.36 5 40 5 C39.65582031 5.77537109 39.65582031 5.77537109 39.3046875 6.56640625 C37.52325665 9.88925481 35.32931665 12.88808819 33.125 15.9375 C32.69058594 16.54529297 32.25617187 17.15308594 31.80859375 17.77929688 C29.87246529 20.47417838 27.96383527 23.04063028 25.75390625 25.5234375 C23.57098969 28.60577402 23.24216565 30.95664081 22.8125 34.6875 C22.06278027 40.87443946 22.06278027 40.87443946 21 43 C22.65 43.33 24.3 43.66 26 44 C26 45.32 26 46.64 26 48 C20.39 48 14.78 48 9 48 C9.33 46.35 9.66 44.7 10 43 C11.32 43 12.64 43 14 43 C16.73593374 32.81526603 14.26826635 25.95304483 9.8125 16.75 C9.07132935 15.21363892 9.07132935 15.21363892 8.31518555 13.64624023 C5.44851741 7.53671615 5.44851741 7.53671615 0 4 C0 2.68 0 1.36 0 0 Z " fill="#1F1F1F" transform="translate(868,305)"/>
<path d="M0 0 C-0.5259375 0.8353125 -0.5259375 0.8353125 -1.0625 1.6875 C-2.2577745 4.63584378 -1.85766837 5.96197693 -1 9 C0.2645095 11.20466604 0.2645095 11.20466604 1.9140625 13.29296875 C2.50751465 14.08405029 3.1009668 14.87513184 3.71240234 15.69018555 C4.34355957 16.51429932 4.9747168 17.33841309 5.625 18.1875 C6.90188847 19.88477994 8.17793844 21.58269103 9.453125 23.28125 C10.06607422 24.09335937 10.67902344 24.90546875 11.31054688 25.7421875 C14.3129546 29.75465378 17.17139513 33.86343123 20 38 C19.505 38.99 19.505 38.99 19 40 C14.08726671 39.38173084 9.75797294 37.90248694 5.1953125 36.05859375 C4.4713327 35.77146011 3.74735291 35.48432648 3.00143433 35.18849182 C0.70703126 34.27704996 -1.58398521 33.35742093 -3.875 32.4375 C-5.43728296 31.81521005 -6.99978091 31.19345955 -8.5625 30.57226562 C-12.37751595 29.05440774 -16.18951799 27.52920242 -20 26 C-17.80550918 30.66500591 -14.77355204 34.58075594 -11.6875 38.6875 C-11.11837891 39.47189453 -10.54925781 40.25628906 -9.96289062 41.06445312 C-9.40150391 41.81017578 -8.84011719 42.55589844 -8.26171875 43.32421875 C-7.75600342 44.00572998 -7.25028809 44.68724121 -6.72924805 45.3894043 C-3.83205102 48.08781017 -0.82391744 48 3 48 C1.54845769 51.62885578 -0.2400638 53.15432673 -3.5 55.25 C-4.69109375 56.03117188 -4.69109375 56.03117188 -5.90625 56.828125 C-8 58 -8 58 -10 58 C-10 57.01 -10 56.02 -10 55 C-9.34 55 -8.68 55 -8 55 C-8.20140093 48.48096997 -12.00290782 44.38805547 -15.8125 39.4375 C-16.44220703 38.60025391 -17.07191406 37.76300781 -17.72070312 36.90039062 C-20.24102135 33.56024171 -22.78402206 30.26144698 -25.44921875 27.03515625 C-27 25 -27 25 -27 23 C-27.598125 23.33 -28.19625 23.66 -28.8125 24 C-31 25 -31 25 -34 25 C-32.49069838 20.77395548 -29.91084747 19.03063234 -26 17 C-21.43659357 17.39022288 -17.52304359 18.8141982 -13.2890625 20.50390625 C-12.36956314 20.86801857 -12.36956314 20.86801857 -11.43148804 21.23948669 C-9.49373226 22.00828251 -7.55937111 22.78523276 -5.625 23.5625 C-4.30360203 24.08843518 -2.98198933 24.6138312 -1.66015625 25.13867188 C1.56240178 26.41955781 4.7819703 27.70777284 8 29 C4.33105533 23.40063301 0.55070979 18.03950747 -3.6796875 12.84765625 C-5 11 -5 11 -5 9 C-7.64 9.33 -10.28 9.66 -13 10 C-13 9.01 -13 8.02 -13 7 C-10.91796875 5.17578125 -10.91796875 5.17578125 -8.1875 3.3125 C-7.29417969 2.68988281 -6.40085937 2.06726563 -5.48046875 1.42578125 C-3 0 -3 0 0 0 Z " fill="#242424" transform="translate(776,577)"/>
<path d="M0 0 C13.2 0 26.4 0 40 0 C39.67 3.63 39.34 7.26 39 11 C37.35 11 35.7 11 34 11 C33.505 8.525 33.505 8.525 33 6 C29.7 6 26.4 6 23 6 C21.68 17.88 20.36 29.76 19 42 C20.32 42.66 21.64 43.32 23 44 C23 45.32 23 46.64 23 48 C17.39 48 11.78 48 6 48 C6.33 46.35 6.66 44.7 7 43 C8.32 43 9.64 43 11 43 C11.12117187 41.741875 11.24234375 40.48375 11.3671875 39.1875 C12.41553835 28.43399366 13.59356228 17.712866 15 7 C11.7 6.67 8.4 6.34 5 6 C4.67 7.65 4.34 9.3 4 11 C2.35 11 0.7 11 -1 11 C-1.07622858 7.03611362 -0.9681648 3.8726592 0 0 Z " fill="#1D1D1D" transform="translate(822,305)"/>
<path d="M0 0 C13.2 0 26.4 0 40 0 C40 8 40 8 39 11 C37.35 11 35.7 11 34 11 C34 9.35 34 7.7 34 6 C30.37 6 26.74 6 23 6 C22.96261719 6.91136719 22.92523438 7.82273437 22.88671875 8.76171875 C22.30160929 20.29181686 20.76810107 31.59633024 19 43 C20.32 43.33 21.64 43.66 23 44 C23 45.32 23 46.64 23 48 C17.39 48 11.78 48 6 48 C6.33 46.68 6.66 45.36 7 44 C9.475 43.505 9.475 43.505 12 43 C12.03738281 42.08863281 12.07476562 41.17726563 12.11328125 40.23828125 C12.69839071 28.70818314 14.23189893 17.40366976 16 6 C14.3739713 6.06000106 12.74898451 6.1487885 11.125 6.25 C10.22007812 6.29640625 9.31515625 6.3428125 8.3828125 6.390625 C5.82889456 6.75611148 5.82889456 6.75611148 4.6796875 9.046875 C4.45539063 9.69140625 4.23109375 10.3359375 4 11 C2.35 11 0.7 11 -1 11 C-0.67 7.37 -0.34 3.74 0 0 Z " fill="#1B1B1B" transform="translate(432,305)"/>
<path d="M0 0 C1.94454444 0.28942057 3.88101678 0.63340769 5.8125 1 C6.89144531 1.185625 7.97039063 1.37125 9.08203125 1.5625 C12 3 12 3 13.62890625 6.34765625 C14.10243483 7.89347989 14.55740113 9.44503817 15 11 C15.66354101 13.00060744 16.3332386 14.99917942 17.0078125 16.99609375 C18.0808953 20.25323913 19.14930823 23.51186227 20.21484375 26.77148438 C20.55902344 27.81498047 20.90320313 28.85847656 21.2578125 29.93359375 C21.5686377 30.88290771 21.87946289 31.83222168 22.19970703 32.81030273 C22.8061567 34.94662648 22.8061567 34.94662648 24 36 C24.84311119 32.77330584 25.67273868 29.54329082 26.5 26.3125 C26.73847656 25.40048828 26.97695313 24.48847656 27.22265625 23.54882812 C27.44824219 22.66259766 27.67382812 21.77636719 27.90625 20.86328125 C28.11572266 20.05157471 28.32519531 19.23986816 28.54101562 18.40356445 C29.03052613 15.84014377 29.21788476 13.60223727 29 11 C27.0995533 9.15684329 27.0995533 9.15684329 25 8 C28.97159686 6.91943941 31.42553157 7.14184386 35.3125 8.4375 C36.19550781 8.72496094 37.07851563 9.01242187 37.98828125 9.30859375 C38.65214844 9.53675781 39.31601562 9.76492188 40 10 C39.67 10.99 39.34 11.98 39 13 C37.35 13.33 35.7 13.66 34 14 C31.03 25.88 28.06 37.76 25 50 C23.02 50.495 23.02 50.495 21 51 C16.71 38.46 12.42 25.92 8 13 C5.65034557 19.85155258 5.65034557 19.85155258 3.83203125 26.74609375 C3.66123047 27.52017578 3.49042969 28.29425781 3.31445312 29.09179688 C3.14880859 29.86587891 2.98316406 30.63996094 2.8125 31.4375 C2.63525391 32.23865234 2.45800781 33.03980469 2.27539062 33.86523438 C1.34080743 37.89476374 1.34080743 37.89476374 1 42 C2.32 42.33 3.64 42.66 5 43 C5 43.99 5 44.98 5 46 C2.68448903 45.57872639 0.37259645 45.13751879 -1.9375 44.6875 C-3.22527344 44.44386719 -4.51304687 44.20023438 -5.83984375 43.94921875 C-6.88269531 43.63597656 -7.92554688 43.32273437 -9 43 C-9.495 41.515 -9.495 41.515 -10 40 C-7.03 39.505 -7.03 39.505 -4 39 C-0.6886082 27.39655743 2.33343613 15.76863385 5 4 C3.35 3.67 1.7 3.34 0 3 C0 2.01 0 1.02 0 0 Z " fill="#242424" transform="translate(527,626)"/>
<path d="M0 0 C0.495 6.435 0.495 6.435 1 13 C0.34 13 -0.32 13 -1 13 C-4 7.25 -4 7.25 -4 5 C-7.66987221 3.77670926 -10.33967822 4.11978994 -14.1875 4.4375 C-16.435625 4.623125 -18.68375 4.80875 -21 5 C-20.67 10.28 -20.34 15.56 -20 21 C-17.69 20.34 -15.38 19.68 -13 19 C-12.67 16.69 -12.34 14.38 -12 12 C-11.01 12 -10.02 12 -9 12 C-8.66225668 14.22850277 -8.3299813 16.45783467 -8 18.6875 C-7.814375 19.92886719 -7.62875 21.17023437 -7.4375 22.44921875 C-7.07899589 25.35886371 -6.91057744 28.07700022 -7 31 C-7.99 30.67 -8.98 30.34 -10 30 C-11.1875 27.4375 -11.1875 27.4375 -12 25 C-14.31 24.67 -16.62 24.34 -19 24 C-18.34 29.94 -17.68 35.88 -17 42 C-14.916875 41.566875 -12.83375 41.13375 -10.6875 40.6875 C-9.51574219 40.44386719 -8.34398437 40.20023438 -7.13671875 39.94921875 C-3.39737743 38.83618983 -3.39737743 38.83618983 -1 36 C-0.20837507 33.27513278 -0.20837507 33.27513278 0.1875 30.3125 C0.34605469 29.31863281 0.50460937 28.32476563 0.66796875 27.30078125 C0.77753906 26.54152344 0.88710938 25.78226563 1 25 C1.99 25.33 2.98 25.66 4 26 C4.495 33.92 4.495 33.92 5 42 C1.12276768 42.573646 -2.75471984 43.14461773 -6.63330078 43.70898438 C-8.59581276 43.99573533 -10.55767863 44.28689713 -12.51953125 44.578125 C-13.76347656 44.75859375 -15.00742187 44.9390625 -16.2890625 45.125 C-18.00150146 45.37636719 -18.00150146 45.37636719 -19.74853516 45.6328125 C-22.8655914 45.98482125 -25.86648615 46.06640559 -29 46 C-29 45.01 -29 44.02 -29 43 C-27.35 43 -25.7 43 -24 43 C-24.12117187 42.09233887 -24.24234375 41.18467773 -24.3671875 40.24951172 C-24.81756427 36.86172571 -25.26443516 33.47351463 -25.70898438 30.08496094 C-25.90160442 28.62221207 -26.0955948 27.15964295 -26.29101562 25.69726562 C-26.5726736 23.58770489 -26.84929557 21.47753357 -27.125 19.3671875 C-27.29257812 18.09987793 -27.46015625 16.83256836 -27.6328125 15.52685547 C-27.96700388 12.31692944 -28.06941863 9.22362753 -28 6 C-29.98 6 -31.96 6 -34 6 C-34 5.01 -34 4.02 -34 3 C-29.96301886 2.40126445 -25.92458738 1.81364846 -21.88452148 1.23608398 C-20.51168748 1.03825484 -19.13927942 0.83744513 -17.76733398 0.63354492 C-15.79005956 0.34021694 -13.81105165 0.05865089 -11.83203125 -0.22265625 C-10.04889526 -0.48187866 -10.04889526 -0.48187866 -8.22973633 -0.74633789 C-5 -1 -5 -1 0 0 Z " fill="#292929" transform="translate(657,635)"/>
<path d="M0 0 C4.82306111 2.56225122 9.30718529 5.96814275 13 10 C13 10.99 13 11.98 13 13 C10.23723823 12.47731534 7.6739124 11.89130413 5 11 C0.9124339 10.60855721 -2.74858312 10.40557698 -6.5 12.1875 C-8.53038709 14.6408844 -9 15.77979348 -9 19 C-5.82418176 28.924432 2.45441127 34.81347161 11 40 C13.84083641 41.42041821 15.85477278 41.31452272 19 41 C21.60314994 39.6469872 21.60314994 39.6469872 23 37 C23.07976706 31.97467494 22.76524699 29.99275285 19.6875 26 C17.02351507 23.60199282 17.02351507 23.60199282 13 24 C11.68 24 10.36 24 9 24 C12.38772897 19.30840284 15.78185183 14.9700218 20 11 C20.99 11.33 21.98 11.66 23 12 C22.34 12.99 21.68 13.98 21 15 C21.18978032 17.73283668 21.80513718 18.79666488 23.70703125 20.78125 C24.40183594 21.3484375 25.09664062 21.915625 25.8125 22.5 C28.67929187 24.89328226 31.41005783 27.30214358 34 30 C33.34 30.66 32.68 31.32 32 32 C29.525 30.02 29.525 30.02 27 28 C27.061875 29.19625 27.12375 30.3925 27.1875 31.625 C27.15033896 35.83162958 26.53323298 38.51680466 24 42 C19.29823052 45.40984183 14.81426792 46.8160376 9 46 C0.27141456 43.32766134 -6.5716448 38.13584479 -11 30.125 C-13.13116948 25.37140842 -14.06622666 21.15342888 -13 16 C-10.77961286 11.55922573 -8.50461946 9.08750658 -4 7 C-1.1875 6.3125 -1.1875 6.3125 1 6 C0.67 4.02 0.34 2.04 0 0 Z " fill="#252525" transform="translate(803,544)"/>
<path d="M0 0 C5.13308791 2.61320839 8.1797908 5.53937241 10 11 C11.26385181 19.43101142 8.76336758 26.05992961 4 33 C-0.54030558 37.72948498 -5.41559362 41.04226816 -12 42 C-17.67436089 42.06649642 -21.6143789 40.77367397 -26 37 C-29.78079362 31.83291538 -29.89292335 26.15866759 -29 20 C-25.9901978 11.2554718 -20.85287247 5.78000933 -13 1 C-8.65201052 -0.44932983 -4.54404655 -0.51669065 0 0 Z M-13.8203125 8.76953125 C-19.22554713 14.70124977 -24.46759121 21.20832088 -25.375 29.375 C-25.28746988 33.0979386 -25.28746988 33.0979386 -22.9375 35.9375 C-19.22131998 38.54673278 -17.46056526 38.70429978 -13 38 C-3.99261127 33.59212892 2.58310208 24.22719898 6 15 C6.67285727 11.03761833 6.38070039 9.68526071 4.4375 6.1875 C-1.99479058 0.41493153 -8.36721802 3.46856172 -13.8203125 8.76953125 Z " fill="#2B2B2B" transform="translate(450,583)"/>
<path d="M0 0 C2.90410799 1.37765123 5.44793761 3.05292243 8 5 C8 4.01 8 3.02 8 2 C8.99 2 9.98 2 11 2 C11 6.95 11 11.9 11 17 C10.01 17.33 9.02 17.66 8 18 C7.76925781 17.32453125 7.53851562 16.6490625 7.30078125 15.953125 C4.77117869 8.71631946 4.77117869 8.71631946 -1 4 C-4.58543666 3.24954494 -4.58543666 3.24954494 -8 4 C-10.26051003 6.01742082 -10.26051003 6.01742082 -11 9 C-10.68517058 12.04964174 -10.68517058 12.04964174 -9 15 C-6.55465574 16.78255958 -3.89672812 17.93291162 -1.125 19.125 C8.1377804 23.25099699 8.1377804 23.25099699 11 27 C12.43808897 31.32212532 12.30494722 35.08515834 10.875 39.375 C8.68424109 42.44206247 7.53219967 43.64724268 4 45 C-2.69019302 46.0381334 -7.10437324 45.00479374 -12.6015625 41.09375 C-13.06304688 40.7328125 -13.52453125 40.371875 -14 40 C-14.33 41.32 -14.66 42.64 -15 44 C-15.99 44 -16.98 44 -18 44 C-17.67 37.4 -17.34 30.8 -17 24 C-16.34 24 -15.68 24 -15 24 C-14.84144531 24.65226563 -14.68289063 25.30453125 -14.51953125 25.9765625 C-12.70689212 32.7664483 -10.87869773 37.71256288 -4.5625 41.4375 C-1.38056126 42.13597436 0.86433335 41.83617777 4 41 C6.21370051 39.21342243 6.21370051 39.21342243 6.1953125 36.8359375 C6.17210937 36.02382813 6.14890625 35.21171875 6.125 34.375 C6.10695313 33.55773437 6.08890625 32.74046875 6.0703125 31.8984375 C6.04710937 31.27195312 6.02390625 30.64546875 6 30 C5.29875 29.72671875 4.5975 29.4534375 3.875 29.171875 C-12.41350906 22.53253707 -12.41350906 22.53253707 -16 16 C-16.77708562 11.61723712 -16.49296291 8.15846284 -14.75 4.0625 C-10.82165145 -0.56733936 -5.73424378 -0.96350262 0 0 Z " fill="#2D2D2D" transform="translate(596,637)"/>
<path d="M0 0 C1.91740583 0.78987473 3.83389641 1.58197148 5.75 2.375 C7.35101563 3.03628906 7.35101563 3.03628906 8.984375 3.7109375 C11.37555926 4.73307585 13.69383183 5.80213595 16 7 C16 7.99 16 8.98 16 10 C13.03 9.505 13.03 9.505 10 9 C8.2016622 12.53831716 6.41253386 16.08121413 4.625 19.625 C4.11710937 20.62402344 3.60921875 21.62304688 3.0859375 22.65234375 C2.59609375 23.62558594 2.10625 24.59882812 1.6015625 25.6015625 C1.15119629 26.49182129 0.70083008 27.38208008 0.23681641 28.29931641 C-2.122354 33.45074614 -3.81552905 37.43237759 -2 43 C0.12458207 45.44648844 1.71565099 46.74572484 4.93359375 47.3828125 C8.60875041 47.59123348 10.33130789 47.46564146 13.44580078 45.296875 C16.13501998 42.87858268 17.37243686 40.95728512 18.9296875 37.71875 C19.414375 36.71199219 19.8990625 35.70523438 20.3984375 34.66796875 C20.88570313 33.62253906 21.37296875 32.57710937 21.875 31.5 C22.38546875 30.45457031 22.8959375 29.40914062 23.421875 28.33203125 C26.13999273 23.25851965 26.13999273 23.25851965 26.75830078 17.73242188 C26.13247344 15.79955001 26.13247344 15.79955001 24 15 C24.33 14.01 24.66 13.02 25 12 C31.435 14.97 31.435 14.97 38 18 C37.505 19.485 37.505 19.485 37 21 C35.02 20.67 33.04 20.34 31 20 C30.76023437 20.6290625 30.52046875 21.258125 30.2734375 21.90625 C28.51992528 26.16631651 26.57953409 30.3290498 24.625 34.5 C24.04492188 35.76263672 24.04492188 35.76263672 23.453125 37.05078125 C21.0890547 42.08831359 18.81370347 46.88972239 14.25 50.3125 C9.03602619 51.90565867 4.62632201 51.55961108 -0.25 49.3125 C-4.73741845 46.82634676 -7.36474899 43.90575302 -9 39 C-9.36054681 33.76546638 -8.62704857 30.34413294 -6.375 25.62890625 C-5.83359375 24.47841797 -5.2921875 23.32792969 -4.734375 22.14257812 C-3.87585938 20.37043945 -3.87585938 20.37043945 -3 18.5625 C-2.42064218 17.3423815 -1.84250515 16.12168253 -1.265625 14.90039062 C0.14436101 11.92767013 1.56647062 8.96142007 3 6 C1.68 5.01 0.36 4.02 -1 3 C-0.67 2.01 -0.34 1.02 0 0 Z " fill="#2A2A2A" transform="translate(478,604)"/>
<path d="M0 0 C3.39409657 2.63215653 4.68687906 4.32905606 6.0625 8.375 C6.25 11.75 6.25 11.75 6.0625 14.375 C8.0425 14.045 10.0225 13.715 12.0625 13.375 C10.56743025 16.96316739 8.51771549 19.0600306 5.625 21.625 C4.84253906 22.33140625 4.06007813 23.0378125 3.25390625 23.765625 C1.0625 25.375 1.0625 25.375 -1.9375 25.375 C0.0625 19.375 0.0625 19.375 1.25 16.5625 C2.33489175 12.30638622 1.76782024 8.66410955 1.0625 4.375 C-3.06738806 2.99837065 -6.73304265 2.41419781 -10.85546875 4.2109375 C-18.70632663 8.88070925 -27.38734907 15.20206906 -29.9375 24.375 C-29.9375 27.99777744 -29.35722521 29.71043509 -27.4375 32.75 C-23.6749959 35.19562766 -20.30184244 35.01207683 -15.9375 34.375 C-13.42409221 33.57236065 -11.3000115 32.58138885 -8.9375 31.375 C-8.9375 32.695 -8.9375 34.015 -8.9375 35.375 C-14.18912859 38.69181806 -18.89106582 39.25001243 -24.9375 38.375 C-28.6667443 36.61208451 -30.42945941 35.08625683 -32.8125 31.75 C-35.00308362 25.17824914 -34.79439217 19.52864241 -31.9375 13.1875 C-25.78511642 2.13406509 -12.4734422 -6.30264838 0 0 Z " fill="#232323" transform="translate(416.9375,550.625)"/>
<path d="M0 0 C0 0.99 0 1.98 0 3 C-1.65 3.66 -3.3 4.32 -5 5 C-4.69707031 5.95366455 -4.39414062 6.9073291 -4.08203125 7.88989258 C-2.95953419 11.42759339 -1.84268638 14.96705631 -0.72753906 18.50708008 C-0.24405426 20.03914283 0.24096242 21.57072303 0.72753906 23.10180664 C1.42656034 25.3022971 2.12005903 27.50446261 2.8125 29.70703125 C3.03123779 30.39150833 3.24997559 31.07598541 3.4753418 31.78120422 C4.36983087 34.64255689 5 36.98146816 5 40 C6.58624235 39.57316761 8.1689098 39.13303842 9.75 38.6875 C10.63171875 38.44386719 11.5134375 38.20023438 12.421875 37.94921875 C15.21879686 36.91944298 16.94227544 36.16996409 19 34 C19.70124774 30.81403338 19.70124774 30.81403338 19.75 27.3125 C19.83507812 25.54326172 19.83507812 25.54326172 19.921875 23.73828125 C19.96054687 22.38283203 19.96054687 22.38283203 20 21 C20.66 21 21.32 21 22 21 C22.70005949 23.07914664 23.38462244 25.16351586 24.0625 27.25 C24.44535156 28.41015625 24.82820312 29.5703125 25.22265625 30.765625 C26.30513193 35.26959417 26.30513193 35.26959417 25 38 C22.36376953 39.29614258 22.36376953 39.29614258 18.8828125 40.39453125 C17.63628906 40.79220703 16.38976562 41.18988281 15.10546875 41.59960938 C14.45239746 41.7983667 13.79932617 41.99712402 13.12646484 42.2019043 C11.13363189 42.80986663 9.15091123 43.4445876 7.16796875 44.08398438 C-2.58442239 47.13852587 -2.58442239 47.13852587 -6 46 C-6 45.34 -6 44.68 -6 44 C-3.525 43.505 -3.525 43.505 -1 43 C-4.63 31.45 -8.26 19.9 -12 8 C-13.98 8 -15.96 8 -18 8 C-17.67 7.01 -17.34 6.02 -17 5 C-14.50638252 3.95485926 -12.13580564 3.09898584 -9.5625 2.3125 C-8.86833984 2.08755859 -8.17417969 1.86261719 -7.45898438 1.63085938 C-2.33838336 0 -2.33838336 0 0 0 Z " fill="#272727" transform="translate(688,625)"/>
<path d="M0 0 C0 0.99 0 1.98 0 3 C-1.32 3.33 -2.64 3.66 -4 4 C-2.2756915 7.64814995 -0.54465949 11.29307201 1.1875 14.9375 C1.67025391 15.95908203 2.15300781 16.98066406 2.65039062 18.03320312 C5.28375909 23.56504425 8.015068 28.97113498 11.1105957 34.26000977 C12 36 12 36 12 38 C13.98 37.34 15.96 36.68 18 36 C18 36.99 18 37.98 18 39 C15.89983377 40.17441535 13.79541245 41.33964012 11.6875 42.5 C11.09259766 42.83386719 10.49769531 43.16773438 9.88476562 43.51171875 C7.04171156 45.06825114 5.29339012 46 2 46 C2 45.01 2 44.02 2 43 C3.98 42.505 3.98 42.505 6 42 C4.27236099 38.37427006 2.54260303 34.74955474 0.8125 31.125 C0.32974609 30.11179687 -0.15300781 29.09859375 -0.65039062 28.0546875 C-3.70013988 21.66863538 -6.80990587 15.31713947 -10 9 C-11.98 9.33 -13.96 9.66 -16 10 C-16 9.01 -16 8.02 -16 7 C-13.71070947 5.82845707 -11.41881638 4.66261926 -9.125 3.5 C-8.47402344 3.16613281 -7.82304688 2.83226562 -7.15234375 2.48828125 C-2.2265625 0 -2.2265625 0 0 0 Z " fill="#2A2A2A" transform="translate(731,607)"/>
<path d="M0 0 C1.31677734 -0.02126953 1.31677734 -0.02126953 2.66015625 -0.04296875 C4.9375 0.1875 4.9375 0.1875 6.9375 2.1875 C5.97650391 2.40792969 5.97650391 2.40792969 4.99609375 2.6328125 C-5.6069461 5.38233401 -10.44490686 10.83122224 -16.328125 19.9296875 C-18.92578172 24.80906972 -20.13956028 29.76522915 -21.0625 35.1875 C-23.0625 34.1875 -23.0625 34.1875 -24.0625 31.1875 C-25.01408939 23.01742538 -23.5847657 17.04544139 -19.0625 10.1875 C-13.87329931 4.06690432 -8.12372668 0.05982126 0 0 Z " fill="#282828" transform="translate(445.0625,582.8125)"/>
<path d="M0 0 C6.435 2.97 6.435 2.97 13 6 C12.67 6.99 12.34 7.98 12 9 C10.02 8.67 8.04 8.34 6 8 C5.76023437 8.6290625 5.52046875 9.258125 5.2734375 9.90625 C3.51992528 14.16631651 1.57953409 18.3290498 -0.375 22.5 C-0.95507812 23.76263672 -0.95507812 23.76263672 -1.546875 25.05078125 C-3.9109453 30.08831359 -6.18629653 34.88972239 -10.75 38.3125 C-16.2228113 39.9847479 -20.48598432 39.50700784 -25.5 37 C-26.67546556 36.34897292 -27.84561699 35.68771754 -29 35 C-27.68 34.34 -26.36 33.68 -25 33 C-24.01 33.66 -23.02 34.32 -22 35 C-16.40810689 35.67627336 -16.40810689 35.67627336 -11.54980469 33.30126953 C-8.86760717 30.88051179 -7.62614393 28.95433367 -6.0703125 25.71875 C-5.34328125 24.20861328 -5.34328125 24.20861328 -4.6015625 22.66796875 C-4.11429687 21.62253906 -3.62703125 20.57710937 -3.125 19.5 C-2.61453125 18.45457031 -2.1040625 17.40914062 -1.578125 16.33203125 C1.13999273 11.25851965 1.13999273 11.25851965 1.75830078 5.73242188 C1.13247344 3.79955001 1.13247344 3.79955001 -1 3 C-0.67 2.01 -0.34 1.02 0 0 Z " fill="#464646" transform="translate(503,616)"/>
<path d="M0 0 C0.99 0.33 1.98 0.66 3 1 C2.01 2.485 2.01 2.485 1 4 C1.18978032 6.73283668 1.80513718 7.79666488 3.70703125 9.78125 C4.40183594 10.3484375 5.09664062 10.915625 5.8125 11.5 C8.67929187 13.89328226 11.41005783 16.30214358 14 19 C13.34 19.66 12.68 20.32 12 21 C10.35 19.68 8.7 18.36 7 17 C7.061875 18.19625 7.12375 19.3925 7.1875 20.625 C7.18016285 24.76315226 6.3321977 27.50170344 4 31 C2.1875 32.4375 2.1875 32.4375 0 33 C-3.25 32.625 -3.25 32.625 -6 32 C-6 31.67 -6 31.34 -6 31 C-4.88625 30.731875 -3.7725 30.46375 -2.625 30.1875 C1.21840951 29.34190981 1.21840951 29.34190981 3 26 C2.92024559 21.05522665 2.72900014 18.94572991 -0.3125 15 C-2.97648493 12.60199282 -2.97648493 12.60199282 -7 13 C-8.32 13 -9.64 13 -11 13 C-7.61227103 8.30840284 -4.21814817 3.9700218 0 0 Z " fill="#343434" transform="translate(823,555)"/>
<path d="M0 0 C1.98 0 3.96 0 6 0 C6.26643311 0.73444336 6.53286621 1.46888672 6.80737305 2.22558594 C8.75265569 6.75090671 11.81294818 10.37365611 14.8125 14.25 C15.42931641 15.07757812 16.04613281 15.90515625 16.68164062 16.7578125 C17.28814453 17.54414062 17.89464844 18.33046875 18.51953125 19.140625 C19.06714111 19.85766602 19.61475098 20.57470703 20.17895508 21.31347656 C23.14896279 24.06408835 26.08357597 24 30 24 C28.54845769 27.62885578 26.7599362 29.15432673 23.5 31.25 C22.30890625 32.03117188 22.30890625 32.03117188 21.09375 32.828125 C19 34 19 34 17 34 C17 33.01 17 32.02 17 31 C17.66 31 18.32 31 19 31 C18.79913158 24.48763424 15.00478444 20.43369627 11.1875 15.5 C9.92986327 13.84460508 8.67332598 12.18837423 7.41796875 10.53125 C6.82677246 9.75523437 6.23557617 8.97921875 5.62646484 8.1796875 C3.63934536 5.51667297 1.7995857 2.79230425 0 0 Z " fill="#474747" transform="translate(749,601)"/>
<path d="M0 0 C-0.350625 0.556875 -0.70125 1.11375 -1.0625 1.6875 C-2.26114384 4.6441548 -1.87268388 5.95391902 -1 9 C0.37913973 11.32140869 0.37913973 11.32140869 2.16015625 13.5390625 C3.1027832 14.78042969 3.1027832 14.78042969 4.06445312 16.046875 C5.05348633 17.32304688 5.05348633 17.32304688 6.0625 18.625 C7.37234862 20.32054748 8.67605711 22.02086167 9.97265625 23.7265625 C10.55281494 24.47502441 11.13297363 25.22348633 11.73071289 25.99462891 C13 28 13 28 13 31 C11.68 31 10.36 31 9 31 C8.17242188 29.47826172 8.17242188 29.47826172 7.328125 27.92578125 C5.1229284 24.06474259 2.52865609 20.64870387 -0.25 17.1875 C-5 11.27001404 -5 11.27001404 -5 9 C-7.64 9.33 -10.28 9.66 -13 10 C-13 9.01 -13 8.02 -13 7 C-10.91796875 5.17578125 -10.91796875 5.17578125 -8.1875 3.3125 C-7.29417969 2.68988281 -6.40085937 2.06726563 -5.48046875 1.42578125 C-3 0 -3 0 0 0 Z " fill="#434343" transform="translate(776,577)"/>
<path d="M0 0 C1.13525928 3.40577783 0.8270633 4.61063761 0.00390625 8.03515625 C-0.22490234 9.00904297 -0.45371094 9.98292969 -0.68945312 10.98632812 C-0.93630859 12.00146484 -1.18316406 13.01660156 -1.4375 14.0625 C-1.91710877 16.07380364 -2.39505774 18.08550402 -2.87109375 20.09765625 C-3.19484985 21.43582397 -3.19484985 21.43582397 -3.52514648 22.80102539 C-4.07035927 24.95087957 -4.07035927 24.95087957 -4 27 C-2.68 27.33 -1.36 27.66 0 28 C0 28.99 0 29.98 0 31 C-2.31551097 30.57872639 -4.62740355 30.13751879 -6.9375 29.6875 C-8.22527344 29.44386719 -9.51304687 29.20023438 -10.83984375 28.94921875 C-11.88269531 28.63597656 -12.92554688 28.32273437 -14 28 C-14.33 27.01 -14.66 26.02 -15 25 C-13.02 24.67 -11.04 24.34 -9 24 C-8.18525038 21.1047827 -7.37312678 18.20887172 -6.5625 15.3125 C-6.33240234 14.49587891 -6.10230469 13.67925781 -5.86523438 12.83789062 C-4.76816554 8.91070219 -3.71223092 5.01960209 -3 1 C-2.01 0.67 -1.02 0.34 0 0 Z " fill="#434343" transform="translate(532,641)"/>
<path d="M0 0 C4.82306111 2.56225122 9.30718529 5.96814275 13 10 C13 10.99 13 11.98 13 13 C10.23723823 12.47731534 7.6739124 11.89130413 5 11 C0.8946965 10.6068586 -2.75262115 10.32833447 -6.4375 12.3125 C-8.19565718 14.12201094 -8.19565718 14.12201094 -10 17 C-10.98095748 18.01868662 -11.97702078 19.02351983 -13 20 C-12.68316514 15.56431192 -11.60034902 12.61825978 -8.609375 9.2578125 C-5.69371801 6.97907087 -2.60202056 6.61051196 1 6 C0.67 4.02 0.34 2.04 0 0 Z " fill="#3A3A3A" transform="translate(803,544)"/>
<path d="M0 0 C4.98770821 0.42268714 9.28723333 1.2327125 14 3 C13.67 3.99 13.34 4.98 13 6 C11.35 6.33 9.7 6.66 8 7 C6.02 14.59 4.04 22.18 2 30 C1.01 29.67 0.02 29.34 -1 29 C-0.43081284 23.08045357 0.80782931 17.56758965 2.37890625 11.83203125 C2.98255553 9.07954241 3.26768311 6.80337224 3 4 C1.0995533 2.15684329 1.0995533 2.15684329 -1 1 C-0.67 0.67 -0.34 0.34 0 0 Z " fill="#3C3C3C" transform="translate(553,633)"/>
<path d="M0 0 C2.90864241 1.37046414 5.44732785 3.05245722 8 5 C8 4.01 8 3.02 8 2 C8.99 2 9.98 2 11 2 C11 6.95 11 11.9 11 17 C10.01 17.33 9.02 17.66 8 18 C7.76925781 17.32453125 7.53851562 16.6490625 7.30078125 15.953125 C4.77117869 8.71631946 4.77117869 8.71631946 -1 4 C-5.66028427 3.5799176 -5.66028427 3.5799176 -10 5 C-10.33 3.68 -10.66 2.36 -11 1 C-7.49741914 -0.75129043 -3.82125045 -0.56925126 0 0 Z " fill="#494949" transform="translate(596,637)"/>
<path d="M0 0 C0.66 0 1.32 0 2 0 C2.15855469 0.65226563 2.31710937 1.30453125 2.48046875 1.9765625 C4.04809189 7.84865359 5.56930237 11.78028797 10 16 C13.52406137 17.89757151 17.05444477 18.44945741 21 19 C21 19.66 21 20.32 21 21 C13.48172337 21.69328371 8.97402239 20.67241975 3 16 C2.67 17.32 2.34 18.64 2 20 C1.01 20 0.02 20 -1 20 C-0.67 13.4 -0.34 6.8 0 0 Z " fill="#3B3B3B" transform="translate(579,661)"/>
<path d="M0 0 C4.51260071 2.19531926 6.24899257 4.29992742 8 9 C8.1875 12.375 8.1875 12.375 8 15 C9.98 14.67 11.96 14.34 14 14 C12.50493025 17.58816739 10.45521549 19.6850306 7.5625 22.25 C6.78003906 22.95640625 5.99757813 23.6628125 5.19140625 24.390625 C3 26 3 26 0 26 C2 20 2 20 3.1875 17.1875 C4.27239175 12.93138622 3.70532024 9.28910955 3 5 C2.01 4.67 1.02 4.34 0 4 C0 2.68 0 1.36 0 0 Z " fill="#3A3A3A" transform="translate(415,550)"/>
<path d="M0 0 C0.99 0.33 1.98 0.66 3 1 C3.495 8.92 3.495 8.92 4 17 C-10.88267148 19.45487365 -10.88267148 19.45487365 -16 19 C-16.66 18.34 -17.32 17.68 -18 17 C-17.09636719 16.81824219 -16.19273437 16.63648438 -15.26171875 16.44921875 C-14.08222656 16.19785156 -12.90273438 15.94648437 -11.6875 15.6875 C-9.92986328 15.32205078 -9.92986328 15.32205078 -8.13671875 14.94921875 C-4.39737743 13.83618983 -4.39737743 13.83618983 -2 11 C-1.20837507 8.27513278 -1.20837507 8.27513278 -0.8125 5.3125 C-0.57466797 3.82169922 -0.57466797 3.82169922 -0.33203125 2.30078125 C-0.16767578 1.16189453 -0.16767578 1.16189453 0 0 Z " fill="#272727" transform="translate(658,660)"/>
<path d="M0 0 C0.33 4.29 0.66 8.58 1 13 C0.34 13 -0.32 13 -1 13 C-4 7.25 -4 7.25 -4 5 C-7.45965416 3.84678195 -10.10744285 3.93746683 -13.75 4 C-18.63901862 4.04048877 -23.20204827 3.91389557 -28 3 C-28 2.67 -28 2.34 -28 2 C-24.27263047 1.46572728 -20.54292619 0.94995807 -16.8125 0.4375 C-15.75740234 0.28603516 -14.70230469 0.13457031 -13.61523438 -0.02148438 C-12.59365234 -0.16005859 -11.57207031 -0.29863281 -10.51953125 -0.44140625 C-9.58214111 -0.57232666 -8.64475098 -0.70324707 -7.67895508 -0.83813477 C-5 -1 -5 -1 0 0 Z " fill="#3C3C3C" transform="translate(657,635)"/>
<path d="M0 0 C0.66 0 1.32 0 2 0 C2.70005949 2.07914664 3.38462244 4.16351586 4.0625 6.25 C4.44535156 7.41015625 4.82820312 8.5703125 5.22265625 9.765625 C6.39735169 14.65330251 6.39735169 14.65330251 5 17 C2.12890625 18.265625 2.12890625 18.265625 -1.4375 19.25 C-2.61183594 19.58515625 -3.78617188 19.9203125 -4.99609375 20.265625 C-8 21 -8 21 -10 21 C-10.33 20.01 -10.66 19.02 -11 18 C-10.16855469 17.70996094 -10.16855469 17.70996094 -9.3203125 17.4140625 C-8.23363281 17.02347656 -8.23363281 17.02347656 -7.125 16.625 C-6.40570312 16.36976563 -5.68640625 16.11453125 -4.9453125 15.8515625 C-2.81842006 15.06122217 -2.81842006 15.06122217 -1 13 C-0.53513282 9.87803664 -0.53513282 9.87803664 -0.375 6.375 C-0.30023437 5.18648437 -0.22546875 3.99796875 -0.1484375 2.7734375 C-0.09945312 1.85820313 -0.05046875 0.94296875 0 0 Z " fill="#3B3B3B" transform="translate(708,646)"/>
<path d="M0 0 C0.66 0.33 1.32 0.66 2 1 C0.35 2.65 -1.3 4.3 -3 6 C12.84 6.495 12.84 6.495 29 7 C29 7.33 29 7.66 29 8 C5.57 8 -17.86 8 -42 8 C-42 7.67 -42 7.34 -42 7 C-31.11 7 -20.22 7 -9 7 C-8.67 6.34 -8.34 5.68 -8 5 C-7.34 5 -6.68 5 -6 5 C-4.43733479 3.900237 -4.43733479 3.900237 -2.875 2.5 C-1.92625 1.675 -0.9775 0.85 0 0 Z " fill="#595959" transform="translate(486,261)"/>
<path d="M0 0 C2 2 4 4 6 6 C12.10246958 6.68096227 16.57280022 5.77133606 22 3 C22 4.32 22 5.64 22 7 C16.75816725 10.31063121 12.0377731 10.89049814 6 10 C0.59288538 7.34387352 0.59288538 7.34387352 -0.9375 3.875 C-1 2 -1 2 0 0 Z " fill="#282929" transform="translate(386,579)"/>
<path d="M0 0 C6.435 2.97 6.435 2.97 13 6 C12.67 6.99 12.34 7.98 12 9 C9.03 8.505 9.03 8.505 6 8 C5.690625 8.78375 5.38125 9.5675 5.0625 10.375 C4 13 4 13 3 15 C2.01 15 1.02 15 0 15 C0.66666667 11.66666667 1.33333333 8.33333333 2 5 C1.01 4.34 0.02 3.68 -1 3 C-0.67 2.01 -0.34 1.02 0 0 Z " fill="#3A3A3A" transform="translate(503,616)"/>
<path d="M0 0 C0.99 0 1.98 0 3 0 C3.33774332 2.22850277 3.6700187 4.45783467 4 6.6875 C4.185625 7.92886719 4.37125 9.17023437 4.5625 10.44921875 C4.92100411 13.35886371 5.08942256 16.07700022 5 19 C4.01 18.67 3.02 18.34 2 18 C1.71125 17.175 1.4225 16.35 1.125 15.5 C0.75375 14.675 0.3825 13.85 0 13 C-2.54775306 12.10613836 -2.54775306 12.10613836 -5 12 C-4.54625 11.649375 -4.0925 11.29875 -3.625 10.9375 C-1.05520381 7.87351223 0 3.99188446 0 0 Z " fill="#4A4A4A" transform="translate(645,647)"/>
<path d="M0 0 C0.33 0.99 0.66 1.98 1 3 C-2.94406476 6.15525181 -5.62695859 7.65048841 -10.8984375 7.40625 C-14.61826316 6.68717589 -17.76983054 4.92435628 -21 3 C-19.68 2.34 -18.36 1.68 -17 1 C-16.01 1.66 -15.02 2.32 -14 3 C-8.30182562 3.46706347 -5.01571703 3.00943022 0 0 Z " fill="#555555" transform="translate(495,648)"/>
<path d="M0 0 C-0.33 0.515625 -0.66 1.03125 -1 1.5625 C-2.32010877 4.78026512 -2.13242105 7.5570528 -2 11 C-3.0725 10.649375 -4.145 10.29875 -5.25 9.9375 C-9.25435111 8.93284239 -9.25435111 8.93284239 -13 10 C-13 9.01 -13 8.02 -13 7 C-10.91796875 5.17578125 -10.91796875 5.17578125 -8.1875 3.3125 C-7.29417969 2.68988281 -6.40085937 2.06726563 -5.48046875 1.42578125 C-3 0 -3 0 0 0 Z " fill="#131313" transform="translate(776,577)"/>
<path d="M0 0 C3.63 0 7.26 0 11 0 C8.98028865 4.0394227 8.11931698 4.92329623 4.5 7.25 C3.7059375 7.77078125 2.911875 8.2915625 2.09375 8.828125 C0 10 0 10 -2 10 C-2 9.01 -2 8.02 -2 7 C-1.34 7 -0.68 7 0 7 C0 4.69 0 2.38 0 0 Z " fill="#444444" transform="translate(768,625)"/>
<path d="M0 0 C2.36185168 1.09708729 3.96522046 2.3304373 6 4 C5.01 4.99 4.02 5.98 3 7 C2.484375 6.505 1.96875 6.01 1.4375 5.5 C-1.83858798 3.48394586 -4.21974954 3.71998145 -8 4 C-8.99 4.495 -8.99 4.495 -10 5 C-10.33 3.68 -10.66 2.36 -11 1 C-7.53785023 -0.73107488 -3.78509418 -0.48819473 0 0 Z " fill="#3C3C3C" transform="translate(596,637)"/>
<path d="M0 0 C4.20240011 3.71750779 6.99782679 8.31660979 10 13 C8.68 13.33 7.36 13.66 6 14 C4.79427404 12.61987977 3.61094249 11.22017172 2.4375 9.8125 C1.77621094 9.03519531 1.11492188 8.25789062 0.43359375 7.45703125 C-1 5 -1 5 -0.71484375 2.19921875 C-0.47894531 1.47347656 -0.24304688 0.74773438 0 0 Z " fill="#515151" transform="translate(761,612)"/>
<path d="M0 0 C0.66 0.33 1.32 0.66 2 1 C1 4 1 4 -1.875 5.6875 C-5 7 -5 7 -8 7 C-8 6.34 -8 5.68 -8 5 C-9.98 5 -11.96 5 -14 5 C-14 4.67 -14 4.34 -14 4 C-13.32453125 3.87882813 -12.6490625 3.75765625 -11.953125 3.6328125 C-10.61507813 3.38144531 -10.61507813 3.38144531 -9.25 3.125 C-8.36828125 2.96257813 -7.4865625 2.80015625 -6.578125 2.6328125 C-3.99249343 2.10389584 -3.99249343 2.10389584 -1.796875 0.8671875 C-0.90742188 0.43792969 -0.90742188 0.43792969 0 0 Z " fill="#5E5E5E" transform="translate(407,582)"/>
<path d="M0 0 C5.0302076 0.52537724 10.01885239 1.10594786 15 2 C15 2.66 15 3.32 15 4 C5.98468271 4.63019694 5.98468271 4.63019694 1.875 2 C1.25625 1.34 0.6375 0.68 0 0 Z " fill="#474747" transform="translate(585,678)"/>
<path d="M0 0 C0 0.33 0 0.66 0 1 C-13.6332574 2.33257403 -13.6332574 2.33257403 -20 1 C-20 0.67 -20 0.34 -20 0 C-13.20164451 -0.95415516 -6.76298691 -1.63951198 0 0 Z " fill="#555555" transform="translate(649,637)"/>
<path d="M0 0 C0.33 0.66 0.66 1.32 1 2 C1.66 2 2.32 2 3 2 C2.34 5.63 1.68 9.26 1 13 C0.01 12.67 -0.98 12.34 -2 12 C-1 3.42857143 -1 3.42857143 0 0 Z " fill="#4A4A4A" transform="translate(554,650)"/>
<path d="M0 0 C0 0.33 0 0.66 0 1 C-2.45779976 1.22126178 -4.91527648 1.42750395 -7.375 1.625 C-8.42300781 1.72167969 -8.42300781 1.72167969 -9.4921875 1.8203125 C-11.32369111 1.96119739 -13.16312748 1.98761659 -15 2 C-15.66 1.34 -16.32 0.68 -17 0 C-11.41615387 -1.86128204 -5.68852856 -1.13770571 0 0 Z " fill="#515151" transform="translate(657,677)"/>
<path d="M0 0 C2 1 2 1 3 3 C2.38125 3.433125 1.7625 3.86625 1.125 4.3125 C-1.2197245 5.99740483 -1.2197245 5.99740483 -3 9 C-3.98095748 10.01868662 -4.97702078 11.02351983 -6 12 C-5.59791618 6.37082652 -3.71069698 3.99613521 0 0 Z " fill="#5E5E5E" transform="translate(796,552)"/>
<path d="M0 0 C0.66 0.33 1.32 0.66 2 1 C-1.63 4.63 -5.26 8.26 -9 12 C-9 7.8407692 -6.75316432 5.85455565 -4 3 C-1.6875 1.125 -1.6875 1.125 0 0 Z " fill="#4F4F4F" transform="translate(396,552)"/>
<path d="M0 0 C0.99 0.33 1.98 0.66 3 1 C3 3.64 3 6.28 3 9 C1.68 9.33 0.36 9.66 -1 10 C-0.67 6.7 -0.34 3.4 0 0 Z " fill="#626262" transform="translate(658,660)"/>
<path d="M0 0 C0.99 0.33 1.98 0.66 3 1 C2.25 5.75 2.25 5.75 0 8 C-0.99 8 -1.98 8 -3 8 C-1.125 2.25 -1.125 2.25 0 0 Z " fill="#5B5B5B" transform="translate(502,630)"/>
<path d="M0 0 C3.16717283 1.58358642 4.73268318 2.45263699 6.3125 5.6875 C6.539375 6.450625 6.76625 7.21375 7 8 C6.01 8.33 5.02 8.66 4 9 C3.896875 8.360625 3.79375 7.72125 3.6875 7.0625 C3.460625 6.381875 3.23375 5.70125 3 5 C2.01 4.67 1.02 4.34 0 4 C0 2.68 0 1.36 0 0 Z " fill="#565656" transform="translate(415,550)"/>
<path d="M0 0 C-1.125 2 -1.125 2 -3 4 C-6.1875 4.25 -6.1875 4.25 -9 4 C-8.67 3.01 -8.34 2.02 -8 1 C-2.59770115 -1.29885057 -2.59770115 -1.29885057 0 0 Z " fill="#525252" transform="translate(679,629)"/>
<path d="M0 0 C0.66 1.32 1.32 2.64 2 4 C-1.08559304 6.26881841 -2.42209376 7.05451946 -6.3125 6.6875 C-7.199375 6.460625 -8.08625 6.23375 -9 6 C-9 5.67 -9 5.34 -9 5 C-7.88625 4.731875 -6.7725 4.46375 -5.625 4.1875 C-1.78159049 3.34190981 -1.78159049 3.34190981 0 0 Z " fill="#565656" transform="translate(826,581)"/>
<path d="M0 0 C3.68754757 0.49831724 5.60490662 1.10067643 8 4 C7 6 7 6 5 7 C3.29115995 5.37660195 1.62553283 3.70680947 0 2 C0 1.34 0 0.68 0 0 Z " fill="#565656" transform="translate(450,585)"/>
<path d="M0 0 C1.22589844 0.01353516 1.22589844 0.01353516 2.4765625 0.02734375 C3.41628906 0.04474609 3.41628906 0.04474609 4.375 0.0625 C1.54946016 4.30080976 -0.74680888 4.03965348 -5.625 5.0625 C-5.955 3.7425 -6.285 2.4225 -6.625 1.0625 C-4.21954362 -0.14022819 -2.67503047 -0.03821472 0 0 Z " fill="#7F7F7F" transform="translate(591.625,636.9375)"/>
<path d="M0 0 C0.66 0.33 1.32 0.66 2 1 C-0.64 3.64 -3.28 6.28 -6 9 C-6.66 8.67 -7.32 8.34 -8 8 C-3.375 2.25 -3.375 2.25 0 0 Z " fill="#4F4F4F" transform="translate(610,308)"/>
<path d="M0 0 C0.66 0.33 1.32 0.66 2 1 C-0.64 3.64 -3.28 6.28 -6 9 C-6.66 8.67 -7.32 8.34 -8 8 C-3.375 2.25 -3.375 2.25 0 0 Z " fill="#4F4F4F" transform="translate(306,308)"/>
<path d="M0 0 C0.33 0.66 0.66 1.32 1 2 C-1.64 2.66 -4.28 3.32 -7 4 C-7.33 3.01 -7.66 2.02 -8 1 C-2.25 -1.125 -2.25 -1.125 0 0 Z " fill="#595959" transform="translate(705,663)"/>
<path d="M0 0 C0.33 0.66 0.66 1.32 1 2 C1.66 2 2.32 2 3 2 C2.67 4.31 2.34 6.62 2 9 C1.01 8.67 0.02 8.34 -1 8 C-0.67 5.36 -0.34 2.72 0 0 Z " fill="#4D4D4D" transform="translate(527,651)"/>
<path d="M0 0 C0.66 0.33 1.32 0.66 2 1 C-0.52788007 3.79872437 -2.20411134 5.45773019 -6 6 C-6 5.01 -6 4.02 -6 3 C-4.03533587 1.93224776 -2.03144641 0.93446535 0 0 Z " fill="#4B4B4B" transform="translate(721,611)"/>
<path d="M0 0 C0.66 0 1.32 0 2 0 C3.625 2 3.625 2 5 4 C4.67 4.66 4.34 5.32 4 6 C2.68 6 1.36 6 0 6 C-0.38218767 4.34385343 -0.71395102 2.67542976 -1 1 C-0.67 0.67 -0.34 0.34 0 0 Z " fill="#565656" transform="translate(785,602)"/>
<path d="M0 0 C0.33 0 0.66 0 1 0 C1 2.64 1 5.28 1 8 C0.01 8.33 -0.98 8.66 -2 9 C-2 7.02 -2 5.04 -2 3 C-1.34 3 -0.68 3 0 3 C0 2.01 0 1.02 0 0 Z " fill="#292929" transform="translate(557,643)"/>
<path d="M0 0 C2.64 0.99 5.28 1.98 8 3 C6.3125 4.125 6.3125 4.125 4 5 C1.25 4.125 1.25 4.125 -1 3 C-0.67 2.01 -0.34 1.02 0 0 Z " fill="#686868" transform="translate(478,604)"/>
<path d="M0 0 C1.5625 1.25 1.5625 1.25 3 3 C2.6875 5.1875 2.6875 5.1875 2 7 C0.35 5.35 -1.3 3.7 -3 2 C-2.01 1.34 -1.02 0.68 0 0 Z " fill="#565656" transform="translate(774,586)"/>
<path d="M0 0 C3.63 0 7.26 0 11 0 C11 0.66 11 1.32 11 2 C9.35 2.33 7.7 2.66 6 3 C6 2.34 6 1.68 6 1 C4.02 1 2.04 1 0 1 C0 0.67 0 0.34 0 0 Z " fill="#646464" transform="translate(393,586)"/>
<path d="M0 0 C0.99 0.33 1.98 0.66 3 1 C2.01 2.98 1.02 4.96 0 7 C-1.32 6.01 -2.64 5.02 -4 4 C-2.68 2.68 -1.36 1.36 0 0 Z " fill="#656565" transform="translate(823,555)"/>
<path d="M0 0 C-1.28965176 1.37562854 -2.62689293 2.70766393 -4 4 C-4.66 4 -5.32 4 -6 4 C-6.33 3.01 -6.66 2.02 -7 1 C-3.375 -1.125 -3.375 -1.125 0 0 Z " fill="#5D5D5D" transform="translate(750,644)"/>
<path d="M0 0 C0 0.99 0 1.98 0 3 C-2.3125 3.625 -2.3125 3.625 -5 4 C-5.99 3.34 -6.98 2.68 -8 2 C-2.25 0 -2.25 0 0 0 Z " fill="#656565" transform="translate(688,625)"/>
<path d="M0 0 C0.66 0 1.32 0 2 0 C3.38232443 1.62626404 4.71937515 3.2925002 6 5 C4.125 5.625 4.125 5.625 2 6 C1.34 5.34 0.68 4.68 0 4 C0 2.68 0 1.36 0 0 Z " fill="#505050" transform="translate(424,616)"/>
<path d="M0 0 C0.66 0.33 1.32 0.66 2 1 C2 1.99 2 2.98 2 4 C0.02 4.66 -1.96 5.32 -4 6 C-4 5.01 -4 4.02 -4 3 C-2 1.3125 -2 1.3125 0 0 Z " fill="#585858" transform="translate(767,581)"/>
<path d="M0 0 C1.65 1.65 3.3 3.3 5 5 C3.02 5.99 3.02 5.99 1 7 C-0.0625 4.625 -0.0625 4.625 -1 2 C-0.67 1.34 -0.34 0.68 0 0 Z " fill="#5E5E5E" transform="translate(386,579)"/>
<path d="M0 0 C-1.20381448 2.49361571 -2.45428722 4.68143083 -4 7 C-4 5.68 -4 4.36 -4 3 C-4.66 2.67 -5.32 2.34 -6 2 C-3 0 -3 0 0 0 Z " fill="#686868" transform="translate(776,577)"/>
<path d="M0 0 C0.99 0 1.98 0 3 0 C3 1.98 3 3.96 3 6 C2.01 6.495 2.01 6.495 1 7 C0.67 4.69 0.34 2.38 0 0 Z " fill="#363636" transform="translate(383,575)"/>
</svg>
